<?xml version="1.0" encoding="UTF-8" standalone="no"?>
<!DOCTYPE svg PUBLIC "-//W3C//DTD SVG 1.1//EN" "http://www.w3.org/Graphics/SVG/1.1/DTD/svg11.dtd">
<svg width="100%" height="100%" viewBox="0 0 512 512" version="1.1" xmlns="http://www.w3.org/2000/svg" xmlns:xlink="http://www.w3.org/1999/xlink" xml:space="preserve" xmlns:serif="http://www.serif.com/" style="fill-rule:evenodd;clip-rule:evenodd;stroke-linejoin:round;stroke-miterlimit:2;">
    <path d="M256,22.115C250.175,22.115 244.437,22.481 238.807,23.189L264.077,42.629L291.517,26.797C279.935,23.682 267.993,22.108 256,22.115ZM224.594,25.755C164.628,39.899 120.115,93.66 120.115,158C120.115,228.687 173.845,286.608 242.765,293.244C242.875,293.155 242.978,293.061 243.088,292.973C251.351,286.344 262.24,282.001 274.34,280.668C280.56,279.983 286.568,280.156 292.162,281.125L292.168,281.1L292.168,281.098C294.122,273.32 298.944,267.219 304.695,263.766C309.009,261.176 313.673,259.929 318.223,259.629C319.739,259.529 321.245,259.535 322.719,259.631C328.614,260.014 334.164,261.741 338.814,265.215C338.937,265.307 339.058,265.41 339.18,265.505C370.792,241.028 391.278,202.903 391.861,159.885C385.633,154.345 374.871,144.655 373.461,142.539C371.474,139.559 351.609,120.191 351.609,120.191L307.41,117.707L327.275,142.043L300.457,153.465L279.963,125.482L304.813,184.5L287.957,251.924L254.244,250.518L239.496,188.012L186.117,176.773L205.783,117.777L274.865,117.777L278.275,111.502L241.963,92.472L200.164,111.457L199.463,70.02C199.463,70.02 220.531,51.056 220.531,45.438C220.531,42.308 222.663,33.32 224.594,25.756L224.594,25.755ZM320.504,277.561C318.067,277.57 315.694,278.158 313.961,279.199C311.979,280.389 310.525,281.91 309.627,285.486L309.621,285.504L295.831,339.432L287.758,338.182C275.64,336.306 262.053,336.165 255.225,337.112C250.315,338.737 247.999,341.596 247.377,343.398C246.742,345.24 246.643,345.596 248.512,346.898C249.229,347.355 254.384,349.543 260.586,351.084C266.842,352.638 274.494,353.982 281.863,354.694C289.233,355.404 296.4,355.443 301.301,354.717C306.201,353.991 307.261,352.093 306.492,353.805C319.924,323.902 323.102,308.417 328.336,279.748C328.256,279.724 328.316,279.84 328.043,279.637C326.976,278.84 324.343,277.773 321.551,277.592C321.201,277.569 320.852,277.559 320.504,277.561ZM280.449,298.346C278.845,298.357 277.199,298.452 275.523,298.636C266.59,299.621 258.807,302.978 253.883,306.928C248.959,310.878 247.234,314.69 247.445,317.893C247.508,318.795 247.722,319.679 248.078,320.51C248.9,320.196 249.734,319.911 250.576,319.656L251.158,319.482L251.76,319.389C259.907,318.113 270.96,318.185 282.375,319.395L287.625,298.865C285.251,298.5 282.851,298.326 280.449,298.345L280.449,298.346ZM230.994,309.449C198.621,322.096 164.413,358.382 157.68,396.719C166.23,410.659 173.605,422.17 199.893,425.523C220.143,428.107 236.088,422.14 253.031,414.102C248.421,441.416 244.008,468.729 230.684,496.043L292.266,497.533L290.279,486.111L253.031,481.641C263.797,454.398 287.105,422.846 281.34,393.242C262.585,389.76 243.523,386.555 211.813,394.732C214.767,386.522 225.247,373.659 237.76,361.324C230.269,355.744 227.564,345.639 230.361,337.529C231.088,335.432 232.095,333.443 233.354,331.615C231.217,328.15 229.834,324.215 229.547,319.863C229.309,316.25 229.859,312.756 230.994,309.449ZM165.354,430.377C170.85,444.592 178.306,458.347 185.49,471.957C167.574,461.205 127.222,457.47 120.682,457.555C117.582,474.615 110.05,483.955 95.662,493.295L110.561,496.273L130.365,473.199C156.555,488.266 205.465,504.142 214.807,492.643C215.112,483.367 214.731,463.688 209.007,443.059C191.726,443.553 176.824,438.206 165.354,430.377Z" style="fill:white;fill-rule:nonzero;"/>
</svg>
