<?xml version="1.0" encoding="UTF-8" standalone="no"?>
<!DOCTYPE svg PUBLIC "-//W3C//DTD SVG 1.1//EN" "http://www.w3.org/Graphics/SVG/1.1/DTD/svg11.dtd">
<svg width="100%" height="100%" viewBox="0 0 512 512" version="1.1" xmlns="http://www.w3.org/2000/svg" xmlns:xlink="http://www.w3.org/1999/xlink" xml:space="preserve" xmlns:serif="http://www.serif.com/" style="fill-rule:evenodd;clip-rule:evenodd;stroke-linejoin:round;stroke-miterlimit:2;">
    <path d="M121.406,18.313C63.426,34.875 23.346,69.926 23.344,110.593C23.341,151.111 63.149,186.209 120.781,202.843C87.128,180.838 65.561,147.619 65.563,110.593C65.563,73.356 87.413,40.316 121.407,18.313L121.406,18.313ZM397.937,18.313C431.932,40.316 453.781,73.356 453.781,110.593C453.785,147.619 432.218,180.838 398.564,202.843C456.196,186.209 496.004,151.111 496.001,110.593C495.998,69.926 455.919,34.875 397.938,18.313L397.937,18.313ZM163.28,41.656C119.977,54.024 90.065,80.221 90.062,110.594C90.06,140.854 119.769,167.076 162.812,179.5C137.677,163.066 121.562,138.245 121.562,110.594C121.562,82.781 137.89,58.091 163.282,41.656L163.28,41.656ZM356.062,41.656C381.452,58.091 397.782,82.781 397.782,110.594C397.782,138.244 381.667,163.066 356.532,179.5C399.575,167.076 429.284,140.855 429.282,110.594C429.278,80.221 399.367,54.024 356.062,41.656ZM255.032,48.469C231.575,51.496 210.812,78.495 210.812,113.124C210.812,132.218 217.447,149.131 227.25,160.874L237.47,173.124L221.78,176.062C208.946,178.462 199.498,185.252 191.53,196.124C183.565,206.996 177.53,222.027 173.312,239.28C165.585,270.9 163.95,309.45 163.719,343.22L205.374,343.22L205.999,351.875L216.624,493.25L306.968,493.25L316.342,351.937L316.936,343.219L356.561,343.219C356.544,309.067 356.188,269.987 349.186,238.124C345.368,220.754 339.574,205.732 331.498,194.968C323.422,184.203 313.508,177.458 299.154,175.248L283.154,172.778L293.279,160.154C302.659,148.472 308.969,131.754 308.969,113.124C308.969,76.204 285.695,48.56 259.874,48.56C257.074,48.56 255.369,48.423 255.03,48.467L255.032,48.469ZM203.594,60.624C172.214,69.588 150.531,88.584 150.531,110.594C150.531,132.521 172.061,151.529 203.251,160.53C185.039,148.622 173.376,130.632 173.376,110.594C173.379,90.441 185.196,72.534 203.596,60.624L203.594,60.624ZM315.75,60.624C334.148,72.534 345.966,90.44 345.97,110.594C345.97,130.631 334.306,148.621 316.094,160.53C347.284,151.53 368.814,132.522 368.814,110.594C368.812,88.584 347.128,69.589 315.75,60.624Z" style="fill:white;"/>
</svg>
