<?xml version="1.0" encoding="UTF-8" standalone="no"?>
<!DOCTYPE svg PUBLIC "-//W3C//DTD SVG 1.1//EN" "http://www.w3.org/Graphics/SVG/1.1/DTD/svg11.dtd">
<svg width="100%" height="100%" viewBox="0 0 512 512" version="1.1" xmlns="http://www.w3.org/2000/svg" xmlns:xlink="http://www.w3.org/1999/xlink" xml:space="preserve" xmlns:serif="http://www.serif.com/" style="fill-rule:evenodd;clip-rule:evenodd;stroke-linejoin:round;stroke-miterlimit:2;">
    <path d="M134.924,42.201C126.89,42.311 107.527,45.524 85.5,49.094L93.104,71.121C137.042,65.248 136.782,64.067 139.994,68.549C172.134,113.388 199.597,156.697 214.67,203.572C247.273,205.982 286.203,212.712 312.98,227.424C347.063,191.084 402.653,171.612 448.477,155.723C460.634,151.507 473.723,163.123 490.947,165.791L495.795,148.527C490.923,141.712 467.988,131.94 458.457,131.809C454.422,131.753 442.961,134.959 439.488,136.15C382.508,147.152 336.121,149.332 277.289,168.725C240.061,130.811 201.084,93.311 156.357,54.922C147.119,46.992 146.666,42.042 134.924,42.202L134.924,42.201ZM218.794,221.818C203.91,247.998 194.462,254.318 174.076,267.988C156.164,263.308 138.292,258.538 117.318,261.002C96.301,258.197 87.732,265.977 62.232,274.902C54.505,272.302 45.271,275.899 39.334,278.43C29.577,283.406 17.992,290.712 20.568,303.018C24.517,315.73 40.791,311.916 48.223,308.721C54.468,305.741 60.278,299.944 64.58,295.381C85.96,295.95 95.454,295.253 117.568,285.469C134.311,292.27 155.485,294.974 174.463,295.441C175.633,294.57 176.836,293.744 178.07,292.965C189.046,286.065 202.357,283.428 214.383,288.195C226.408,292.963 234.127,303.938 237.156,316.391C238.945,323.743 239.237,331.747 238.012,339.93C242.762,353.258 246.372,365.501 254.918,381.842C249.725,404.622 251.374,427.125 252.656,450.184L229.875,458.734L225.535,469.803L295.748,469.803L287.611,457.9L271.242,449.643C274.746,426.636 280.87,403.893 277.488,380.197C278.038,362.493 272.199,344.79 268.74,327.086C290.044,300.847 279.114,282.345 294.04,253.799C296.197,249.681 298.607,245.701 301.256,241.881C273.893,230.541 246.772,223.042 218.795,221.818L218.794,221.818ZM200.644,303.66C196.59,303.78 192.202,305.22 187.652,308.08C180.374,312.656 173.269,320.885 168.892,331.543C164.516,342.201 163.819,352.973 165.828,361.23C167.837,369.488 172.118,374.843 177.865,377.121C183.612,379.399 190.477,378.464 197.755,373.889C205.035,369.313 212.141,361.082 216.518,350.424C220.894,339.766 221.589,328.996 219.58,320.738C217.571,312.48 213.291,307.124 207.545,304.846C205.39,303.991 203.077,303.588 200.645,303.66L200.644,303.66Z" style="fill:white;fill-rule:nonzero;"/>
</svg>
