<?xml version="1.0" encoding="UTF-8" standalone="no"?>
<!DOCTYPE svg PUBLIC "-//W3C//DTD SVG 1.1//EN" "http://www.w3.org/Graphics/SVG/1.1/DTD/svg11.dtd">
<svg width="100%" height="100%" viewBox="0 0 512 512" version="1.1" xmlns="http://www.w3.org/2000/svg" xmlns:xlink="http://www.w3.org/1999/xlink" xml:space="preserve" xmlns:serif="http://www.serif.com/" style="fill-rule:evenodd;clip-rule:evenodd;stroke-linejoin:round;stroke-miterlimit:2;">
    <path d="M296.8,20.89C282.7,20.89 269.7,28.33 259.7,41.52C249.7,54.71 243.2,73.52 243.2,94.48C243.2,115.4 249.7,134.3 259.7,147.4C269.7,160.6 282.7,168.1 296.8,168.1C310.9,168.1 323.9,160.6 333.9,147.4C342.8,135.7 348.9,119.4 350.2,101.2C344.8,101.2 339.2,99.9 334.3,95.7C336.1,84.42 341.5,77.21 347.5,70.74C344.7,59.47 339.9,49.47 333.9,41.52C323.9,28.33 310.9,20.89 296.8,20.89ZM233.2,52.16C210.2,53.35 183.2,56.76 170.3,63.94C72.22,133.3 47.78,244.5 48.84,354C43.09,390.3 42.79,404.8 57.78,436.4C69.2,460.5 102,449.7 109.7,427.5C89.39,407.3 87.27,401.2 87.82,374L107.2,402.5L119.7,394.1C117,372.8 104.2,354.2 90.27,335.7C91.73,281.8 98.36,246.9 131.5,207.5L146.5,212.1L134.2,335.6C184,344.7 239.4,348 279.6,339.8L276.6,244.5C313.8,279.9 327.3,330.7 352.5,374C356.6,393.7 366.3,416 376.8,420.3C412,434.8 438.4,385.7 411.2,365.1L466.8,177.2L439.5,75.57L382.5,363.6L325,232.8C328.4,213.4 330.6,193.8 331,175C320.9,182 309.3,186.1 296.8,186.1C276.3,186.1 258,175 245.4,158.3C232.7,141.6 225.2,119.1 225.2,94.48C225.2,79.26 228.1,64.87 233.2,52.16ZM274.3,62.72C287.3,67.17 308.7,80.19 317.2,96.4C312.9,107.2 290.1,102.3 279.3,92.21L274.3,62.72ZM133.5,353.7C143.9,396.4 143.6,435.8 131.9,470.1L151.5,491.1L174.1,480.8L170.8,418.6C203.7,384.2 245,367 276.4,419.1C250.8,441.9 253.1,444.4 244.7,476.4L339,477.5C336.3,460.8 305.9,453.7 283,450.4L306.8,428.1L283.2,357.4C239.5,366.6 184.1,362.9 133.5,353.7Z" style="fill:white;fill-rule:nonzero;"/>
</svg>
