<?xml version="1.0" encoding="UTF-8" standalone="no"?>
<!DOCTYPE svg PUBLIC "-//W3C//DTD SVG 1.1//EN" "http://www.w3.org/Graphics/SVG/1.1/DTD/svg11.dtd">
<svg width="100%" height="100%" viewBox="0 0 512 512" version="1.1" xmlns="http://www.w3.org/2000/svg" xmlns:xlink="http://www.w3.org/1999/xlink" xml:space="preserve" xmlns:serif="http://www.serif.com/" style="fill-rule:evenodd;clip-rule:evenodd;stroke-linejoin:round;stroke-miterlimit:2;">
    <path d="M83.014,30.53C68.214,30.53 56.896,36.398 49.054,48.13C41.272,59.805 37.381,76.786 37.381,99.072C37.381,121.3 41.273,138.279 49.056,150.012C56.896,161.686 68.216,167.522 83.016,167.522C97.813,167.522 109.106,161.686 116.888,150.012C124.728,138.279 128.648,121.3 128.648,99.072C128.648,76.786 124.728,59.805 116.888,48.132C109.105,36.398 97.813,30.532 83.015,30.532L83.014,30.53ZM313.662,30.53C298.862,30.53 287.542,36.398 279.702,48.13C271.919,59.805 268.027,76.786 268.027,99.072C268.027,121.3 271.919,138.279 279.701,150.012C287.544,161.686 298.864,167.522 313.663,167.522C328.463,167.522 339.753,161.686 347.533,150.012C355.376,138.279 359.298,121.3 359.298,99.072C359.298,76.786 355.376,59.805 347.534,48.132C339.752,36.398 328.462,30.532 313.664,30.532L313.662,30.53ZM428.986,30.53C414.188,30.53 402.866,36.398 395.026,48.13C387.243,59.805 383.352,76.786 383.352,99.072C383.352,121.3 387.242,138.279 395.025,150.012C402.867,161.686 414.188,167.522 428.985,167.522C443.785,167.522 455.075,161.686 462.857,150.012C470.699,138.279 474.619,121.3 474.619,99.072C474.619,76.786 470.699,59.805 462.856,48.132C455.074,36.398 443.784,30.532 428.986,30.532L428.986,30.53ZM192.236,32.92L160.664,39.287L160.664,55.56L192.412,49.193L192.412,149.923L163.23,149.923L163.23,164.959L239.285,164.959L239.285,149.923L210.1,149.923L210.1,32.92L192.236,32.92ZM83.014,44.682C92.27,44.682 99.198,49.222 103.797,58.302C108.455,67.322 110.783,80.912 110.783,99.072C110.783,117.172 108.455,130.762 103.797,139.842C99.197,148.862 92.27,153.372 83.014,153.372C73.816,153.372 66.89,148.862 62.232,139.842C57.634,130.762 55.334,117.172 55.334,99.072C55.334,80.912 57.634,67.322 62.232,58.302C66.89,49.222 73.816,44.682 83.014,44.682ZM313.662,44.682C322.919,44.682 329.847,49.222 334.445,58.302C339.103,67.322 341.432,80.912 341.432,99.072C341.432,117.172 339.102,130.762 334.445,139.842C329.847,148.862 322.919,153.372 313.662,153.372C304.465,153.372 297.537,148.862 292.879,139.842C288.279,130.762 285.979,117.172 285.979,99.072C285.979,80.912 288.279,67.322 292.879,58.302C297.536,49.222 304.464,44.682 313.661,44.682L313.662,44.682ZM428.986,44.682C438.243,44.682 445.171,49.222 449.77,58.302C454.427,67.322 456.756,80.912 456.756,99.072C456.756,117.172 454.426,130.762 449.77,139.842C445.17,148.862 438.243,153.372 428.986,153.372C419.789,153.372 412.861,148.862 408.203,139.842C403.603,130.762 401.305,117.172 401.305,99.072C401.305,80.912 403.605,67.322 408.203,58.302C412.861,49.222 419.789,44.682 428.986,44.682ZM83.014,187.504C68.214,187.504 56.896,193.371 49.054,205.104C41.272,216.777 37.381,233.758 37.381,256.044C37.381,278.272 41.273,295.252 49.056,306.984C56.896,318.658 68.216,324.496 83.016,324.496C97.813,324.496 109.106,318.658 116.888,306.984C124.728,295.252 128.648,278.272 128.648,256.044C128.648,233.758 124.728,216.777 116.888,205.104C109.105,193.371 97.813,187.504 83.015,187.504L83.014,187.504ZM198.338,187.504C183.538,187.504 172.218,193.371 164.378,205.104C156.594,216.777 152.703,233.758 152.703,256.044C152.703,278.272 156.593,295.252 164.377,306.984C172.217,318.658 183.539,324.496 198.337,324.496C213.137,324.496 224.427,318.658 232.211,306.984C240.053,295.252 243.974,278.272 243.974,256.044C243.974,233.758 240.054,216.777 232.212,205.104C224.43,193.371 213.139,187.504 198.34,187.504L198.338,187.504ZM307.561,189.894L275.987,196.26L275.987,212.533L307.737,206.163L307.737,306.896L278.554,306.896L278.554,321.932L354.61,321.932L354.61,306.896L325.424,306.896L325.424,189.893L307.56,189.893L307.561,189.894ZM422.884,189.894L391.312,196.26L391.312,212.533L423.062,206.163L423.062,306.896L393.877,306.896L393.877,321.932L469.934,321.932L469.934,306.896L440.75,306.896L440.75,189.893L422.885,189.893L422.884,189.894ZM83.014,201.654C92.271,201.654 99.199,206.194 103.798,215.274C108.456,224.294 110.784,237.886 110.784,256.044C110.784,274.144 108.456,287.734 103.798,296.814C99.198,305.834 92.271,310.346 83.015,310.346C73.817,310.346 66.891,305.836 62.233,296.814C57.635,287.734 55.335,274.144 55.335,256.044C55.335,237.886 57.635,224.294 62.233,215.274C66.891,206.194 73.817,201.654 83.015,201.654L83.014,201.654ZM198.339,201.654C207.595,201.654 214.523,206.194 219.122,215.274C223.782,224.294 226.109,237.886 226.109,256.044C226.109,274.144 223.781,287.734 219.123,296.814C214.525,305.834 207.597,310.346 198.341,310.346C189.143,310.346 182.215,305.836 177.558,296.814C172.958,287.734 170.658,274.144 170.658,256.044C170.658,237.886 172.958,224.294 177.558,215.274C182.215,206.194 189.143,201.654 198.341,201.654L198.339,201.654ZM198.339,344.477C183.539,344.477 172.219,350.343 164.379,362.077C156.595,373.75 152.704,390.729 152.704,413.017C152.704,435.243 156.594,452.224 164.378,463.957C172.218,475.631 183.54,481.469 198.338,481.469C213.138,481.469 224.428,475.629 232.212,463.956C240.054,452.223 243.975,435.242 243.975,413.016C243.975,390.728 240.055,373.749 232.213,362.076C224.431,350.342 213.14,344.476 198.341,344.476L198.339,344.477ZM313.663,344.477C298.863,344.477 287.543,350.343 279.703,362.077C271.92,373.75 268.028,390.729 268.028,413.017C268.028,435.243 271.92,452.224 279.702,463.957C287.545,475.631 298.865,481.469 313.664,481.469C328.464,481.469 339.754,475.629 347.534,463.956C355.377,452.223 359.299,435.242 359.299,413.016C359.299,390.728 355.377,373.749 347.535,362.076C339.753,350.342 328.463,344.476 313.665,344.476L313.663,344.477ZM76.913,346.865L45.341,353.232L45.341,369.504L77.091,363.137L77.091,463.87L47.904,463.87L47.904,478.9L123.961,478.9L123.961,463.87L94.778,463.87L94.778,346.864L76.912,346.864L76.913,346.865ZM422.883,346.865L391.313,353.232L391.313,369.504L423.063,363.137L423.063,463.87L393.876,463.87L393.876,478.9L469.933,478.9L469.933,463.87L440.749,463.87L440.749,346.864L422.884,346.864L422.883,346.865ZM198.34,358.627C207.596,358.627 214.524,363.167 219.123,372.247C223.783,381.267 226.11,394.857 226.11,413.017C226.11,431.117 223.782,444.707 219.124,453.787C214.526,462.807 207.598,467.317 198.342,467.317C189.144,467.317 182.216,462.807 177.559,453.787C172.959,444.707 170.659,431.117 170.659,413.017C170.659,394.857 172.959,381.267 177.559,372.247C182.216,363.167 189.144,358.627 198.342,358.627L198.34,358.627ZM313.664,358.627C322.921,358.627 329.849,363.167 334.447,372.247C339.105,381.267 341.434,394.857 341.434,413.017C341.434,431.117 339.104,444.707 334.447,453.787C329.849,462.807 322.921,467.317 313.664,467.317C304.467,467.317 297.539,462.807 292.881,453.787C288.281,444.707 285.981,431.117 285.981,413.017C285.981,394.857 288.281,381.267 292.881,372.247C297.538,363.167 304.466,358.627 313.663,358.627L313.664,358.627Z" style="fill:white;fill-rule:nonzero;"/>
</svg>
