<?xml version="1.0" encoding="UTF-8" standalone="no"?>
<!DOCTYPE svg PUBLIC "-//W3C//DTD SVG 1.1//EN" "http://www.w3.org/Graphics/SVG/1.1/DTD/svg11.dtd">
<svg width="100%" height="100%" viewBox="0 0 512 512" version="1.1" xmlns="http://www.w3.org/2000/svg" xmlns:xlink="http://www.w3.org/1999/xlink" xml:space="preserve" xmlns:serif="http://www.serif.com/" style="fill-rule:evenodd;clip-rule:evenodd;stroke-linejoin:round;stroke-miterlimit:2;">
    <path d="M25,25L25,231L135,231L135,227.7L99.27,192L135,156.3L135,25L25,25ZM423,119C406.5,119 391.7,122.4 381.8,127.4C371.8,132.4 368,138 368,142C368,146 371.8,151.6 381.8,156.6C391.7,161.6 406.5,165 423,165C439.5,165 454.3,161.6 464.2,156.6C474.2,151.6 478,146 478,142C478,138 474.2,132.4 464.2,127.4C454.3,122.4 439.5,119 423,119ZM160,156.7L124.7,192L188.7,256L124.7,320L160,355.3L236.3,279L329,279L329,316.8L401.9,256L329,195.2L329,233L236.3,233L160,156.7ZM368,169.5L368,204.3L430.1,256L368,307.7L368,366C368,374 372.8,379.8 383,384.9C393.2,390.1 408.1,393 423,393C437.9,393 452.8,390.1 463,384.9C473.2,379.8 478,374 478,366L478,169.5C476.2,170.6 474.3,171.7 472.3,172.7C459.1,179.3 441.9,183 423,183C404.1,183 386.9,179.3 373.7,172.7C371.7,171.7 369.8,170.6 368,169.5ZM80,361C49.52,361 25,385.5 25,416C25,446.5 49.52,471 80,471C110.5,471 135,446.5 135,416C135,385.5 110.5,361 80,361Z" style="fill:white;fill-rule:nonzero;"/>
</svg>
