<?xml version="1.0" encoding="UTF-8" standalone="no"?>
<!DOCTYPE svg PUBLIC "-//W3C//DTD SVG 1.1//EN" "http://www.w3.org/Graphics/SVG/1.1/DTD/svg11.dtd">
<svg width="100%" height="100%" viewBox="0 0 512 512" version="1.1" xmlns="http://www.w3.org/2000/svg" xmlns:xlink="http://www.w3.org/1999/xlink" xml:space="preserve" xmlns:serif="http://www.serif.com/" style="fill-rule:evenodd;clip-rule:evenodd;stroke-linejoin:round;stroke-miterlimit:2;">
    <path d="M413.28,123.063C366.787,123.317 306.08,143 255.845,143C198.977,143 131.671,119.296 84.845,123.844C61.431,126.118 44.203,134.004 32.565,154.781C20.925,175.561 15.335,211.118 21.595,267.971C30.173,345.888 94.82,386.944 150.251,367.376C161.764,363.312 181.223,342.12 199.251,321.251C208.265,310.817 217.244,300.564 226.281,292.531C235.321,284.501 244.511,277.907 255.845,277.907C267.18,277.907 276.338,284.501 285.375,292.532C294.415,300.565 303.393,310.818 312.407,321.252C330.435,342.122 349.894,363.312 361.407,367.377C416.857,386.951 480.337,345.705 490.095,267.814C497.232,210.828 491.848,175.286 480.157,154.534C468.467,133.78 450.811,125.869 426.937,123.627C423.954,123.347 420.887,123.167 417.751,123.097C416.281,123.062 414.781,123.057 413.281,123.065L413.28,123.063ZM135.064,181.72C157.442,181.52 179.81,192.276 202.189,212.5C158.789,267.17 93.701,249.544 72.001,212.5C93.023,191.762 114.041,181.906 135.064,181.72ZM369.689,181.72C370.389,181.704 371.083,181.713 371.782,181.72C392.805,181.906 413.855,191.762 434.877,212.5C413.177,249.544 348.057,267.17 304.657,212.5C326.337,192.908 348.011,182.188 369.69,181.72L369.689,181.72Z" style="fill:white;fill-rule:nonzero;"/>
</svg>
