<?xml version="1.0" encoding="UTF-8" standalone="no"?>
<!DOCTYPE svg PUBLIC "-//W3C//DTD SVG 1.1//EN" "http://www.w3.org/Graphics/SVG/1.1/DTD/svg11.dtd">
<svg width="100%" height="100%" viewBox="0 0 512 512" version="1.1" xmlns="http://www.w3.org/2000/svg" xmlns:xlink="http://www.w3.org/1999/xlink" xml:space="preserve" xmlns:serif="http://www.serif.com/" style="fill-rule:evenodd;clip-rule:evenodd;stroke-linejoin:round;stroke-miterlimit:2;">
    <path d="M315.4,20.34L228,70.5L374,38.22L315.4,20.34ZM67.73,23L43.73,39L212.3,39L188.3,23L67.73,23ZM73,57L73,87L89,87L89,57L73,57ZM107,57L107,87L149,87L149,57L107,57ZM167,57L167,87L183,87L183,57L167,57ZM240.4,90.86L415.5,132.4L375.6,91.84L240.4,90.86ZM57,105L57,121L199,121L199,105L57,105ZM226.1,112.9L276.2,170.7L325.7,167.5L226.1,112.9ZM105,139L105,183L151,183L151,139L105,139ZM16,198L16,231L496,231L496,198L16,198ZM16,249L16,496L52.68,496L64.67,485.2L39.33,457.1L79.54,471.9L94.81,458.2L80.77,441.7L107.5,413L95.95,392.2L65.14,364.7L97.31,369.8L146.8,352.6L128.9,320L156.5,335.7L166.1,313.2L176.6,358.3L219.8,396.4L203.7,422.9L212.4,431.6L253.1,427.2L228,447.1L240.9,459.9L220.8,496L398.3,496L410.8,462.9L374.2,444.8C360.2,457.6 350.1,473.1 330.2,481.7L288.9,446.7L300.5,432.9L330.2,458.1C352.1,434.1 360.2,419.8 373.4,388.8L356,384.2L325.6,405.8L324.7,388.4L353.3,369.1L385.9,370C381.3,362.7 380,353 382.4,343.8C386.2,328.9 398.6,318.6 411.6,319.3C413.1,319.4 414.6,319.6 416,320C430.2,323.7 438.2,340.3 433.9,357.1C430.7,369.5 421.6,379 410.7,381.2L430.8,399L454.3,385.3L466.8,396.5L428.7,417.4L408,399.5L395.5,432.5L434.2,454.5L417.7,496L496,496L496,249L16,249Z" style="fill:white;fill-rule:nonzero;"/>
</svg>
