<?xml version="1.0" encoding="UTF-8" standalone="no"?>
<!DOCTYPE svg PUBLIC "-//W3C//DTD SVG 1.1//EN" "http://www.w3.org/Graphics/SVG/1.1/DTD/svg11.dtd">
<svg width="100%" height="100%" viewBox="0 0 512 512" version="1.1" xmlns="http://www.w3.org/2000/svg" xmlns:xlink="http://www.w3.org/1999/xlink" xml:space="preserve" xmlns:serif="http://www.serif.com/" style="fill-rule:evenodd;clip-rule:evenodd;stroke-linejoin:round;stroke-miterlimit:2;">
    <path d="M157.536,14.885C149.641,14.929 141.77,16.638 134.724,20.055C130.54,22.084 126.869,25.078 124.161,28.807C123.599,28.739 123.035,28.687 122.47,28.653C120.135,28.522 117.794,28.672 115.495,29.1C97.894,32.357 82.113,45.354 75.545,62.006C73.402,67.441 72.883,73.448 74.347,79.09C73.291,80.018 72.303,81.021 71.39,82.09C59.786,95.72 55.74,115.76 61.15,132.823C62.733,137.818 65.62,142.347 69.587,145.721C66.897,163.279 73.812,182.309 87.177,194.011C88.837,195.462 90.655,196.72 92.597,197.762C92.335,199.062 92.15,200.382 92.065,201.712C92.047,202.008 92.038,202.305 92.025,202.602L109.938,215.608C108.499,211.238 107.774,206.778 108.032,202.727C108.071,202.124 108.242,201.452 108.466,200.764C110.216,200.527 111.937,200.106 113.599,199.508C116.886,198.327 119.889,196.469 122.411,194.053C123.133,194.325 123.785,194.646 124.304,195.018C133.594,201.682 140.55,216.362 139.824,227.772C139.684,229.943 138.166,232.889 136.507,234.899L149.784,244.539C153.395,240.09 155.424,234.525 155.79,228.789L155.79,228.788C156.927,210.924 148.175,192.448 133.63,182.016C132.527,181.229 131.371,180.519 130.17,179.891C130.275,179.406 130.373,178.921 130.452,178.431C133.263,161.069 126.624,142.204 113.618,130.366C118.942,118.971 120.329,105.618 117.14,93.512C127.446,88.694 136.308,80.569 141.85,70.67C153.831,75.03 167.494,75.103 179.425,70.702C180.313,72.444 181.291,74.139 182.356,75.78L195.784,66.42C194.82,64.891 193.947,63.306 193.169,61.674C196.655,57.585 198.928,52.452 199.247,46.616C199.407,43.719 199.06,40.816 198.222,38.038C198.565,38.021 198.908,38 199.261,38.004C201.336,38.029 203.498,38.412 204.896,39.188C209.595,41.796 213.972,46.233 217.368,51.379L230.788,42.026C226.114,35.099 219.908,29.219 212.661,25.198C208.56,22.921 203.955,21.635 199.306,21.584C195.439,21.537 191.614,22.386 188.13,24.063C187.568,23.649 186.992,23.255 186.403,22.881C178.823,18.121 169.93,15.462 160.919,14.969C159.792,14.907 158.664,14.879 157.536,14.885ZM158.185,31.227C164.723,31.325 171.325,32.813 176.455,35.598C174.328,39.892 173.393,44.73 173.644,49.553C173.75,51.541 173.976,53.522 174.319,55.483C166.133,58.455 155.302,58.305 146.729,55.28C146.996,49.173 145.243,43.003 141.017,37.872C140.516,37.268 139.988,36.688 139.433,36.133C140.179,35.412 140.957,34.813 141.704,34.452C145.562,32.582 150.255,31.538 155.124,31.284C156.143,31.231 157.164,31.212 158.184,31.227L158.185,31.227ZM119.368,44.739C119.676,51.849 122.958,58.113 127.909,62.686C123.863,69.576 116.704,75.879 109.208,79.35C105.87,76.14 101.658,73.793 96.726,72.797C95.511,72.552 94.28,72.396 93.042,72.331C91.995,72.276 90.945,72.288 89.899,72.366C89.817,70.703 89.962,69.064 90.431,67.876C94.625,57.24 107.163,46.912 118.405,44.832C118.705,44.777 119.031,44.752 119.368,44.739ZM233.786,59.439L196.952,85.109L222.728,121.752L259.56,96.082L233.786,59.44L233.786,59.439ZM83.382,92.705C88.677,96.765 95.25,98.411 101.732,97.9C103.559,105.58 102.427,115.208 99.101,123.091C97.299,122.791 95.47,122.689 93.646,122.785C91.274,122.913 88.876,123.382 86.499,124.238C83.085,125.46 79.979,127.412 77.397,129.957C76.964,129.287 76.6,128.617 76.401,127.99C72.978,117.187 76.11,101.459 83.381,92.705L83.382,92.705ZM268.767,109.169L231.931,134.839L434.083,422.228C450.127,417.847 460.955,408.406 470.675,396.214L268.767,109.168L268.767,109.169ZM104.452,143.822C111.84,151.834 116.332,165.527 114.657,175.874C114.596,176.219 114.51,176.56 114.397,176.892C109.14,177.548 104.226,179.861 100.37,183.494C99.328,183.07 98.387,182.562 97.716,181.974C90.05,175.263 84.863,162.4 85.114,151.691C92.516,151.921 99.362,148.833 104.452,143.821L104.452,143.822ZM214.261,199.947L181.903,239.955C193.337,241.405 204.715,244.749 215.616,250.107L214.261,199.947ZM81.861,214.749L102.913,305.46C124.461,311.16 153.307,295.435 156.778,270.033L134.337,253.473C134.479,253.449 134.622,253.433 134.765,253.408L102.618,230.066L81.86,214.75L81.861,214.749ZM167.544,251.074C162.664,251.116 157.813,251.536 153.032,252.316C158.482,256.121 161.21,258.218 169.366,263.664L169.151,267.578C167.213,304.705 126.681,327.308 95.767,315.841L92.735,314.722L92.005,311.57L88.14,294.94C86.354,297.744 84.713,300.638 83.224,303.61C59.58,350.683 78.51,407.838 125.57,431.476C127.989,432.69 130.457,433.803 132.969,434.812L121.248,409.855L119.871,406.917L121.564,404.173C136.151,380.398 170.473,370.935 196.539,383.865C202.776,386.959 208.344,391.251 212.924,396.495L215.074,398.925L214.197,402.056L205.334,434.146C225.483,425.654 242.825,410.214 253.428,389.105C256.216,383.562 258.46,377.761 260.128,371.785L254.961,375.679L252.389,377.623L249.339,376.539C218.269,365.509 201.689,322.17 224.019,292.445L226.545,290.142L229.175,290.048L245.93,291.076C237.214,278.828 225.467,268.464 211.08,261.238L211.078,261.236C197.077,254.203 182.182,250.946 167.543,251.074L167.544,251.074ZM72.679,297.864L17.356,300.869L61.714,334.806C63.086,322.064 66.739,309.672 72.499,298.224C72.559,298.104 72.619,297.984 72.681,297.864L72.679,297.864ZM231.919,302.249C218.283,323.967 230.357,354.539 250.546,363.982L324.87,307.902L231.919,302.249ZM171.389,390.47C156.544,390.495 141.727,397.065 133.603,407.93L175.499,497.117L201.694,402.218C198.479,399.084 194.904,396.54 191.026,394.705C184.892,391.8 178.138,390.459 171.39,390.47L171.389,390.47ZM260.478,401.177C253.858,412.34 245.252,422.199 235.087,430.267L286.794,450.557L260.478,401.177ZM80.27,407.553L58.348,463.495L109.648,436.122C98.097,428.593 88.119,418.889 80.27,407.553ZM480.195,409.748C470.713,420.742 459.108,430.428 443.723,435.932L457.801,455.946C475.666,453.916 486.878,445.539 494.643,430.288L480.195,409.748Z" style="fill:white;fill-rule:nonzero;"/>
</svg>
