<?xml version="1.0" encoding="UTF-8" standalone="no"?>
<!DOCTYPE svg PUBLIC "-//W3C//DTD SVG 1.1//EN" "http://www.w3.org/Graphics/SVG/1.1/DTD/svg11.dtd">
<svg width="100%" height="100%" viewBox="0 0 512 512" version="1.1" xmlns="http://www.w3.org/2000/svg" xmlns:xlink="http://www.w3.org/1999/xlink" xml:space="preserve" xmlns:serif="http://www.serif.com/" style="fill-rule:evenodd;clip-rule:evenodd;stroke-linejoin:round;stroke-miterlimit:2;">
    <path d="M350.5,33.05C336.6,63.63 321.1,94.34 288.9,118.4C296.2,121.8 309.6,124.6 316.8,126.9C304.6,145.6 283.8,163.3 264.8,179.2C275.9,184.9 286.9,189.5 297.9,193.2C283.8,215.4 267,236.5 246,255.6C262.7,264.9 279.3,272.2 295.8,277.4C277.9,302.8 255.4,327 223.7,353.5C275.2,380 320.7,392.3 365.9,390.9C367.7,390.9 369.6,391 371.4,391L371.4,390.7C411.3,388.5 451,375.7 494.6,352.7C455.8,328.2 431.7,305 413.2,279.5C431,274.3 448.8,266.6 466.5,256.4C440.7,238.7 422.3,217.8 407.6,194.9C419.7,191.2 431.7,186.2 443.7,179.9C420.5,165.3 399.6,147.6 387,128.5C395.8,126.1 409.8,123.2 418.5,119.1C380,97.34 369.6,65.94 350.5,33.05ZM173.6,336.8C173.5,337.1 173.2,337.6 173,337.9L192.4,476.9L264.6,478.1C226.4,433.2 198.6,387 173.6,336.8ZM173,338C149.2,385.8 128.2,432.2 86.56,475.2L163.4,476.5L173,338ZM152.3,339.1C128.2,348 98.13,356 69.99,354.9C58.81,394.7 43.61,434.9 17.42,470.7L64.07,472.3C107.2,431.5 128.3,387.3 152.3,339.1ZM338.8,407.9L336.1,478.3L379.1,478.9L373,409C361.4,409 349.9,408.7 338.8,407.9Z" style="fill:white;fill-rule:nonzero;"/>
</svg>
