<?xml version="1.0" encoding="UTF-8" standalone="no"?>
<!DOCTYPE svg PUBLIC "-//W3C//DTD SVG 1.1//EN" "http://www.w3.org/Graphics/SVG/1.1/DTD/svg11.dtd">
<svg width="100%" height="100%" viewBox="0 0 512 512" version="1.1" xmlns="http://www.w3.org/2000/svg" xmlns:xlink="http://www.w3.org/1999/xlink" xml:space="preserve" xmlns:serif="http://www.serif.com/" style="fill-rule:evenodd;clip-rule:evenodd;stroke-linejoin:round;stroke-miterlimit:2;">
    <path d="M375.344,18.438C374.207,18.428 373.068,18.445 371.906,18.468C358.633,18.738 343.719,21.255 326.344,26.594C303.944,33.477 288.264,54.471 290.5,76.906C292.12,93.246 305.686,111.049 321.375,122.531C346.039,140.577 363.665,159.181 375.75,176.971L383.375,225.814L401.845,222.907L396.781,190.47C395.441,167.47 388.801,144.756 374.439,121.375C388.979,130.165 401.799,139.835 412.469,149.531L440.689,205.251L457.345,196.813L430.815,144.407C423.667,127.06 412.97,110.76 397.032,95.377C413.002,100.151 427.512,106.217 440.002,112.813L479.908,158.033L493.908,145.657L453.408,99.782L453.314,99.877C441.37,85.048 426.1,72.19 406.063,61.687L406.063,61.594C405.785,61.351 405.505,61.781 405.251,61.781C379.951,59.951 357.521,61.614 342.971,65.471C356.344,54.838 377.776,46.924 407.563,44.221L454.938,62.531L461.688,45.095L420.313,29.095L420.22,29.063C406.753,22.571 392.396,18.599 375.344,18.438ZM137.656,18.468C120.818,18.7 106.619,22.632 93.281,29.063L51.813,45.093L58.533,62.531L105.939,44.221C135.709,46.927 157.163,54.841 170.532,65.471C155.982,61.614 133.552,59.951 108.252,61.781C107.998,61.781 107.718,61.351 107.439,61.595L107.439,61.688C87.4,72.192 72.132,85.047 60.188,99.876L60.064,99.782L19.564,145.658L33.594,158.033L73.5,112.813C85.99,106.217 100.5,100.151 116.47,95.376C100.53,110.76 89.802,127.06 82.656,144.406L56.126,196.813L72.813,205.251L101,149.53C111.672,139.836 124.49,130.164 139.03,121.375C124.67,144.755 118.03,167.47 116.687,190.469L111.657,222.905L130.125,225.811L137.719,177.031C149.803,159.225 167.403,140.594 192.093,122.531C207.783,111.048 221.347,93.245 222.968,76.905C225.202,54.47 209.554,33.475 187.154,26.593C168.041,20.72 151.902,18.273 137.654,18.468L137.656,18.468ZM307.72,235.814C296.31,235.814 283.448,240.724 267.5,258.532L267.5,389.346C286.74,375.448 305.985,369.718 324.063,369.502C347.05,369.227 367.706,377.134 385.625,384.94C403.545,392.745 419.167,400.27 429.781,401.408C435.089,401.978 438.783,401.32 442.345,399.096C445.532,397.106 448.965,393.28 452.345,386.566L431.688,256.81C421.04,264.235 410.808,268.363 400.968,269.498C387.162,271.09 374.905,266.968 364.218,261.528C342.848,250.653 326.054,235.766 307.718,235.811L307.72,235.814ZM208.344,240.814C190.226,240.732 172.761,256.264 150.938,267.907C140.026,273.729 127.59,278.301 113.531,277.063C103.513,276.183 93.108,272.281 82.345,264.907L62.906,393.47C76.522,406.566 88.25,409.036 101.5,407.312C115.767,405.457 131.832,397.458 148.906,389.219C165.98,380.979 184.216,372.443 204.344,371.999C218.919,371.679 234.074,376.209 248.814,387.343L248.814,259.47C232.559,241.02 224.04,240.85 208.344,240.812L208.344,240.814ZM45.438,278.875L20.656,437.095L215.562,450.095L215.562,469.095L299.125,469.095L299.125,450.125L494.655,437.095L469.875,278.875L454.345,280.095L471.281,386.595L471.721,389.375L470.563,391.905C465.803,402.46 459.818,410.211 452.251,414.938C448.591,417.223 444.661,418.665 440.657,419.468L440.687,419.656L438.689,419.844C438.605,419.856 438.522,419.864 438.439,419.874C437.481,420.01 436.524,420.091 435.564,420.156L435.439,420.156L258.563,437.28L257.781,437.344L257.031,437.281L98.564,426.314L98.47,426.314C93.864,426.517 89.192,426.214 84.5,425.344C84.47,425.339 84.437,425.35 84.406,425.344C71.386,422.91 58.242,416.054 46.156,403.22L43.031,399.906L43.721,395.406L61.126,280.094L45.438,278.874L45.438,278.875ZM324.28,388.188C305.778,388.408 286.453,394.866 264.844,415.813L262.5,418.093L387.063,406.063C384.119,404.723 381.17,403.375 378.156,402.063C360.899,394.545 342.784,387.967 324.281,388.188L324.28,388.188ZM204.75,390.688C189.844,391.016 173.81,397.968 157.03,406.063C153.712,407.663 150.34,409.309 146.97,410.938L254,418.344L251.28,415.219C234.19,395.536 219.656,390.359 204.75,390.686L204.75,390.688Z" style="fill:white;fill-rule:nonzero;"/>
</svg>
