<?xml version="1.0" encoding="UTF-8" standalone="no"?>
<!DOCTYPE svg PUBLIC "-//W3C//DTD SVG 1.1//EN" "http://www.w3.org/Graphics/SVG/1.1/DTD/svg11.dtd">
<svg width="100%" height="100%" viewBox="0 0 512 512" version="1.1" xmlns="http://www.w3.org/2000/svg" xmlns:xlink="http://www.w3.org/1999/xlink" xml:space="preserve" xmlns:serif="http://www.serif.com/" style="fill-rule:evenodd;clip-rule:evenodd;stroke-linejoin:round;stroke-miterlimit:2;">
    <path d="M88.125,31.344C75.071,31.594 62.005,36.496 55.219,45.187L87.28,221.78C67.572,235.37 51.45,251.46 40.03,269.437C27.742,288.787 21.047,310.341 21.062,332.125L21.062,332.155C21.047,353.94 27.742,375.463 40.032,394.813C52.328,414.173 70.092,431.378 91.906,445.593C113.721,459.809 139.526,470.997 167.562,478.563C195.598,486.129 225.779,490.063 256,490.063C286.22,490.063 316.402,486.129 344.438,478.563C372.473,470.997 398.311,459.809 420.125,445.593C441.939,431.378 459.672,414.173 471.969,394.813C484.257,375.463 490.952,353.94 490.936,332.156L490.936,332.126C490.952,310.368 484.26,288.863 471.999,269.531L471.969,269.439C460.543,251.449 444.412,235.345 424.686,221.751L456.72,45.187C445.86,31.281 418.966,27.147 401.687,36.125L391.437,102.781L120.5,102.781L110.28,36.095C103.802,32.728 95.957,31.195 88.125,31.345L88.125,31.344ZM127.968,151.438L383.969,151.438L377.029,196.563C366.592,192.387 355.704,188.728 344.437,185.688C316.401,178.122 286.22,174.218 255.999,174.218C225.779,174.218 195.597,178.122 167.561,185.688C156.271,188.735 145.363,192.408 134.905,196.594L127.968,151.438ZM256,196.78C284.71,196.78 313.438,200.53 339.844,207.656C351.601,210.829 362.922,214.661 373.594,219.094L365.688,270.5L146.25,270.5L138.375,219.125C149.059,214.685 160.385,210.833 172.155,207.655C198.562,200.53 227.29,196.781 256,196.781L256,196.78ZM420.406,245.375C435.429,256.667 447.442,269.397 455.844,282.625C466.07,298.725 471.08,315.545 471.064,332.125L471.062,332.155C471.08,348.735 466.07,365.525 455.844,381.625C445.617,397.725 430.06,413.101 410.219,426.031C390.376,438.961 366.249,449.469 339.843,456.595C313.438,463.72 284.71,467.47 256,467.47C227.29,467.47 198.562,463.72 172.156,456.594C145.751,449.468 121.654,438.961 101.812,426.031C81.972,413.101 66.382,397.727 56.156,381.626C45.93,365.526 40.92,348.736 40.938,332.156L40.938,332.126C40.92,315.546 45.93,298.726 56.156,282.626C64.551,269.408 76.556,256.692 91.563,245.406L122.375,415.096C135.765,425.274 153.431,431.158 171.719,436.438L167.312,407.658L344.624,407.658L340.218,436.438C358.505,431.158 376.202,425.274 389.592,415.095L420.404,245.375L420.406,245.375ZM151.437,304.28L360.5,304.28L348.312,383.813L163.656,383.813L151.436,304.281L151.437,304.28Z" style="fill:white;fill-rule:nonzero;"/>
</svg>
