<?xml version="1.0" encoding="UTF-8" standalone="no"?>
<!DOCTYPE svg PUBLIC "-//W3C//DTD SVG 1.1//EN" "http://www.w3.org/Graphics/SVG/1.1/DTD/svg11.dtd">
<svg width="100%" height="100%" viewBox="0 0 512 512" version="1.1" xmlns="http://www.w3.org/2000/svg" xmlns:xlink="http://www.w3.org/1999/xlink" xml:space="preserve" xmlns:serif="http://www.serif.com/" style="fill-rule:evenodd;clip-rule:evenodd;stroke-linejoin:round;stroke-miterlimit:2;">
    <path d="M400,16C378.665,25.73 341.756,33.34 326.914,64.232C304.554,66.18 254.161,74.905 204.694,104.482C146.596,139.222 88.677,201.899 72.918,318.184L72.438,321.721L69.664,323.971C38.794,348.973 29.007,362.908 25.248,385.124C21.712,406.024 24.528,436.584 24.885,487.001L328.36,487.001C331.815,470.109 338.8,457.756 340.832,445.433C343.169,431.257 341.022,415.495 320.02,386.886C276.942,328.203 273.167,257.428 307.104,215.606C298.45,212.841 292.014,208.719 287.646,203.06C281.531,195.136 280.246,186.054 279.076,177.176L296.924,174.824C298.036,183.27 299.304,188.704 301.894,192.061C304.484,195.417 309.204,198.533 321.444,200.521L321.422,200.649L321.594,200.479L327.592,209.903C347.549,241.261 370.432,261.195 400.924,264.343L407.434,265.015L408.801,271.415C411.541,284.243 417.427,290.51 423.917,293.653C430.407,296.796 438.142,296.597 444.387,293.858C453.703,289.772 458.905,282.508 461.087,271.146C463.209,260.096 461.633,245.312 455.95,229.04C422.412,190.792 411.475,141.763 392.047,100.268C385.992,90.321 379.599,81.75 371.662,75.412C376.808,55.126 386.456,34.852 400,16ZM214.068,34.97C179.55,35.06 146.075,43.06 96,58.58C127.146,68.5 166.397,77.48 182.037,97.59C186.5,94.573 190.977,91.71 195.455,89.03C235.965,64.81 275.842,53.744 303.685,48.99C267.831,39.513 240.638,34.896 214.068,34.967L214.068,34.97ZM157.16,96.712C156.03,96.702 154.895,96.702 153.758,96.716C123.405,97.086 90.658,106.461 57.111,127.999C84.297,131.671 111.781,131.723 129.691,143.397C145.591,125.477 162.835,110.763 180.368,98.729C172.82,97.485 165.076,96.791 157.161,96.712L157.16,96.712ZM368,128C375.249,128.001 381.213,133.966 381.213,141.215C381.213,141.216 381.213,141.216 381.213,141.217C381.213,148.466 375.249,154.431 368,154.432C360.751,154.431 354.787,148.466 354.787,141.217C354.787,141.216 354.787,141.216 354.787,141.215C354.787,133.966 360.751,128.001 368,128ZM129.094,144.068C92.699,145.563 60.191,150.598 24.334,168.834C57.57,175.929 75.247,182.341 89.359,202.664C100.881,180.134 114.404,160.734 129.093,144.068L129.094,144.068ZM74.518,201.46C53.53,201.65 36.614,213.14 16,224C43.854,224 62.067,227.862 74.71,236.055C79.04,224.403 83.87,213.44 89.12,203.131C84,201.941 79.157,201.421 74.518,201.461L74.518,201.46ZM73.895,238.28C55.962,244.125 38.443,245.43 19.665,260.564C37.285,265.202 54.455,270.16 61.063,282.598C64.559,266.828 68.877,252.075 73.895,238.278L73.895,238.28ZM444.037,246.85C445.654,246.815 447.259,246.894 448.82,247.037L447.18,264.963C443.252,264.603 441.667,265.379 441.61,265.428C441.552,265.476 440.575,266.084 440.975,271.314L423.025,272.686C422.387,264.336 424.322,256.479 429.98,251.689C434.225,248.096 439.186,246.954 444.037,246.849L444.037,246.85ZM52.215,290.723C41.863,290.853 28.455,296.369 17.559,303.057C29.732,309.887 29.916,326.529 26.497,340.725C33.797,331.62 43.352,322.402 55.655,312.245C56.671,305.202 57.845,298.345 59.161,291.66C57.079,290.99 54.741,290.69 52.214,290.723L52.215,290.723Z" style="fill:white;fill-rule:nonzero;"/>
</svg>
