<?xml version="1.0" encoding="UTF-8" standalone="no"?>
<!DOCTYPE svg PUBLIC "-//W3C//DTD SVG 1.1//EN" "http://www.w3.org/Graphics/SVG/1.1/DTD/svg11.dtd">
<svg width="100%" height="100%" viewBox="0 0 512 512" version="1.1" xmlns="http://www.w3.org/2000/svg" xmlns:xlink="http://www.w3.org/1999/xlink" xml:space="preserve" xmlns:serif="http://www.serif.com/" style="fill-rule:evenodd;clip-rule:evenodd;stroke-linejoin:round;stroke-miterlimit:2;">
    <path d="M139.7,23.52C130.6,54.06 123.2,85.16 127,115.1C131.2,147.8 148,180 192.7,210.8C139.1,285.6 106.6,415.2 133.4,488.5C144.3,434.5 147.6,390.7 186.9,343.9C264.4,318.3 310.8,306.3 327.2,218.2C333.4,203.5 339.8,198.9 359.1,193.5C369.7,190.6 381.3,186 381.2,174.3C381,125 352.9,105.9 323.6,106.4C294.2,106.9 263.6,127 258.2,156.2C252.2,158 246.3,160.7 240.5,164.2C177.6,120.5 158.4,78.34 139.7,23.52ZM32.03,107C42.83,134.2 58.47,161.6 81.23,183.1C105.5,206 137.7,222.4 182.1,225.3C147.6,201.1 127.3,175 116.9,148.1C87.5,137.2 60.43,123.1 32.03,107ZM332.1,133.3C338.784,133.322 344.278,138.816 344.3,145.5C344.278,152.184 338.784,157.678 332.1,157.7C325.416,157.678 319.922,152.184 319.9,145.5C319.922,138.816 325.416,133.322 332.1,133.3ZM392.1,189.4C388.6,194.5 385,199.6 376,202.6C409.9,227.9 455.1,279.1 480,307.6C468.8,274.4 424.2,219 392.1,189.4Z" style="fill:white;fill-rule:nonzero;"/>
</svg>
