<?xml version="1.0" encoding="UTF-8" standalone="no"?>
<!DOCTYPE svg PUBLIC "-//W3C//DTD SVG 1.1//EN" "http://www.w3.org/Graphics/SVG/1.1/DTD/svg11.dtd">
<svg width="100%" height="100%" viewBox="0 0 512 512" version="1.1" xmlns="http://www.w3.org/2000/svg" xmlns:xlink="http://www.w3.org/1999/xlink" xml:space="preserve" xmlns:serif="http://www.serif.com/" style="fill-rule:evenodd;clip-rule:evenodd;stroke-linejoin:round;stroke-miterlimit:2;">
    <path d="M256.977,22.395C240.177,22.395 224.487,30.045 211.113,42.572C197.741,55.102 186.293,72.552 176.75,93.689C174.75,98.117 172.84,102.719 171.014,107.466C165.979,106.673 161.028,106.024 156.184,105.54C150.414,104.965 144.784,104.608 139.314,104.48C122.894,104.09 107.887,105.755 94.734,109.742C77.198,115.059 62.728,124.825 54.328,139.372C45.928,153.922 44.708,171.336 48.871,189.182C53.036,207.027 62.423,225.666 75.958,244.5C78.798,248.45 81.832,252.412 85.034,256.373C81.836,260.33 78.806,264.286 75.97,268.233C62.434,287.066 53.047,305.705 48.883,323.551C44.719,341.397 45.94,358.811 54.34,373.358C62.74,387.908 77.21,397.673 94.746,402.988C112.283,408.306 133.119,409.495 156.196,407.19C161.034,406.706 165.976,406.06 171.004,405.268C172.834,410.023 174.747,414.634 176.75,419.07C186.293,440.21 197.74,457.657 211.113,470.186C224.486,482.714 240.178,490.366 256.977,490.366C273.775,490.366 289.467,482.714 302.84,470.186C316.212,457.656 327.66,440.209 337.203,419.07C339.206,414.634 341.119,410.025 342.949,405.27C347.971,406.06 352.909,406.707 357.743,407.19C380.821,409.494 401.658,408.305 419.193,402.988C436.731,397.672 451.201,387.906 459.601,373.358C468.001,358.808 469.221,341.396 465.058,323.551C460.893,305.706 451.505,287.067 437.971,268.233C435.134,264.287 432.104,260.331 428.906,256.373C432.108,252.413 435.143,248.453 437.982,244.501C451.517,225.667 460.904,207.028 465.068,189.183C469.232,171.337 468.011,153.923 459.611,139.373C451.211,124.826 436.741,115.06 419.205,109.743C406.053,105.756 391.045,104.091 374.627,104.48C369.153,104.608 363.522,104.965 357.753,105.54C352.913,106.024 347.966,106.673 342.936,107.465C341.108,102.719 339.198,98.118 337.199,93.689C327.656,72.549 316.209,55.099 302.836,42.571C289.463,30.043 273.771,22.394 256.973,22.394L256.977,22.395ZM256.977,41.082C268.182,41.082 279.169,46.005 290.063,56.212C300.956,66.417 311.36,81.865 320.17,101.379C321.574,104.489 322.935,107.713 324.256,111.022C302.839,115.784 280.156,123.09 256.971,132.852C233.791,123.092 211.111,115.788 189.698,111.026C191.02,107.716 192.378,104.49 193.784,101.378C202.594,81.863 212.998,66.415 223.892,56.208C234.786,46.003 245.772,41.08 256.979,41.08L256.977,41.082ZM133.387,123.139C135.191,123.121 137.024,123.133 138.885,123.175C143.845,123.285 149.002,123.605 154.328,124.138C157.734,124.478 161.215,124.913 164.752,125.426C158.166,146.353 153.152,169.648 150.01,194.606C129.962,209.806 112.292,225.8 97.46,241.969C95.248,239.164 93.13,236.369 91.133,233.591C78.638,216.205 70.463,199.471 67.07,184.933C63.678,170.395 64.91,158.42 70.512,148.716C76.114,139.012 85.872,131.959 100.156,127.628C109.531,124.785 120.756,123.253 133.386,123.138L133.387,123.139ZM380.555,123.139C393.185,123.254 404.41,124.786 413.785,127.629C428.071,131.959 437.825,139.012 443.428,148.716C449.03,158.42 450.263,170.396 446.871,184.933C443.481,199.47 435.301,216.205 422.808,233.591C420.811,236.369 418.695,239.164 416.483,241.971C401.653,225.804 383.988,209.814 363.946,194.616C360.806,169.654 355.786,146.356 349.2,125.426C352.733,124.913 356.21,124.476 359.613,124.138C364.939,123.605 370.096,123.285 375.057,123.174C376.917,123.132 378.75,123.12 380.555,123.137L380.555,123.139ZM330.635,128.779C335.605,144.217 339.72,161.251 342.791,179.479C333.075,172.912 322.915,166.547 312.345,160.444C301.78,154.344 291.195,148.731 280.655,143.601C297.975,137.146 314.782,132.194 330.635,128.781L330.635,128.779ZM183.318,128.782C199.168,132.196 215.973,137.148 233.288,143.602C222.748,148.732 212.163,154.345 201.598,160.444C191.032,166.544 180.878,172.906 171.164,179.468C174.234,161.245 178.348,144.215 183.318,128.781L183.318,128.782ZM256.971,153.242C272.178,159.95 287.614,167.746 303.001,176.63C318.394,185.518 332.871,194.99 346.286,204.81C348.082,221.337 349.048,238.608 349.048,256.38C349.048,274.142 348.085,291.406 346.29,307.926C332.875,317.744 318.4,327.214 303.012,336.1C287.622,344.985 272.182,352.784 256.972,359.492C241.76,352.784 226.32,344.985 210.93,336.1C195.545,327.217 181.076,317.75 167.666,307.936C165.871,291.413 164.906,274.146 164.906,256.379C164.906,238.604 165.871,221.331 167.668,204.802C181.081,194.985 195.553,185.514 210.941,176.63C226.329,167.747 241.765,159.95 256.971,153.244L256.971,153.242ZM258.235,181.358L204.733,214.375L258.235,247.395L311.737,214.375L258.235,181.357L258.235,181.358ZM147.475,220.492C146.648,232.19 146.218,244.172 146.218,256.377C146.218,268.575 146.648,280.549 147.476,292.241C133.226,280.471 120.533,268.391 109.649,256.368C120.533,244.346 133.226,232.264 147.476,220.492L147.475,220.492ZM366.48,220.502C380.723,232.272 393.413,244.349 404.293,256.369C393.413,268.389 380.723,280.466 366.48,292.233C367.306,280.545 367.736,268.573 367.736,256.378C367.736,244.174 367.306,232.198 366.479,220.502L366.48,220.502ZM192.68,228.896L192.68,294.094L248.87,328.771L248.87,263.576L192.68,228.896ZM323.738,228.93L267.561,263.6L267.561,328.764L323.739,294.094L323.739,228.93L323.738,228.93ZM97.458,270.77C112.292,286.94 129.96,302.93 150.006,318.13C153.146,343.085 158.162,366.378 164.746,387.305C161.216,387.815 157.74,388.252 154.34,388.592C133.036,390.719 114.453,389.432 100.168,385.102C85.882,380.772 76.128,373.716 70.525,364.012C64.923,354.307 63.69,342.332 67.082,327.795C70.474,313.258 78.65,296.523 91.145,279.137C93.138,276.362 95.252,273.571 97.459,270.77L97.458,270.77ZM416.482,270.773C418.689,273.573 420.802,276.363 422.795,279.137C435.289,296.522 443.465,313.257 446.857,327.794C450.249,342.331 449.019,354.306 443.417,364.011C437.813,373.715 428.057,380.771 413.771,385.101C399.487,389.431 380.907,390.718 359.603,388.591C356.206,388.251 352.735,387.816 349.208,387.306C355.793,366.374 360.808,343.076 363.948,318.116C383.988,302.92 401.654,286.934 416.483,270.771L416.482,270.773ZM342.795,333.256C339.725,351.482 335.611,368.516 330.641,383.953C314.787,380.54 297.978,375.585 280.657,369.131C291.199,363.999 301.787,358.385 312.357,352.283C322.924,346.183 333.081,339.819 342.797,333.256L342.795,333.256ZM171.16,333.266C180.87,339.826 191.022,346.186 201.584,352.283C212.154,358.385 222.744,363.999 233.284,369.131C215.968,375.584 199.164,380.538 183.311,383.951C178.341,368.517 174.231,351.487 171.161,333.266L171.16,333.266ZM257.53,334.116L258.21,334.536L258.887,334.116L257.53,334.116ZM256.97,379.883C280.16,389.643 302.844,396.948 324.264,401.709C322.94,405.029 321.578,408.259 320.17,411.379C311.36,430.892 300.956,446.339 290.062,456.546C279.169,466.752 268.182,471.676 256.977,471.676C245.771,471.676 234.784,466.752 223.891,456.546C212.998,446.34 202.594,430.892 193.784,411.378C192.376,408.258 191.014,405.026 189.689,401.708C211.105,396.946 233.787,389.642 256.972,379.883L256.97,379.883Z" style="fill:white;fill-rule:nonzero;"/>
</svg>
