<?xml version="1.0" encoding="UTF-8" standalone="no"?>
<!DOCTYPE svg PUBLIC "-//W3C//DTD SVG 1.1//EN" "http://www.w3.org/Graphics/SVG/1.1/DTD/svg11.dtd">
<svg width="100%" height="100%" viewBox="0 0 512 512" version="1.1" xmlns="http://www.w3.org/2000/svg" xmlns:xlink="http://www.w3.org/1999/xlink" xml:space="preserve" xmlns:serif="http://www.serif.com/" style="fill-rule:evenodd;clip-rule:evenodd;stroke-linejoin:round;stroke-miterlimit:2;">
    <path d="M273.5,22.48L166,86.15L211.2,102.2L168.4,222.8L228.6,244.2L271.5,123.6L316.7,139.7L273.5,22.48ZM62.4,35.28L57.63,95.24L35.04,93.33L69.04,141.4L110,99.44L87.54,97.64L92.37,37.53L62.4,35.28ZM391.4,93.72L361.3,121.7L417.1,181.9L394.4,202.8L474,213.1L469.8,133.1L447.2,154L391.4,93.72ZM45.51,202.5L32.3,237L100.9,263.7L90.68,289.5L159.1,266.8L124.5,203.6L114.3,229.5L45.51,202.5ZM423.3,254.3L328.4,261.9L353.1,353.5L374.1,323.7L453.5,380L481.5,340.2L402.1,284.1L423.3,254.3ZM242.6,268.8L106.8,370.7L68.53,319.4L30.48,481.1L195.8,489.5L157.7,438.5L293.8,336.7L242.6,268.8ZM335.4,384.4L313.1,400.2L344.4,445.1L327.5,456.8L379.1,471.1L383.9,417.8L366.9,429.5L335.4,384.4Z" style="fill:white;fill-rule:nonzero;"/>
</svg>
