<?xml version="1.0" encoding="UTF-8" standalone="no"?>
<!DOCTYPE svg PUBLIC "-//W3C//DTD SVG 1.1//EN" "http://www.w3.org/Graphics/SVG/1.1/DTD/svg11.dtd">
<svg width="100%" height="100%" viewBox="0 0 512 512" version="1.1" xmlns="http://www.w3.org/2000/svg" xmlns:xlink="http://www.w3.org/1999/xlink" xml:space="preserve" xmlns:serif="http://www.serif.com/" style="fill-rule:evenodd;clip-rule:evenodd;stroke-linejoin:round;stroke-miterlimit:2;">
    <path d="M28.334,73.395L27.974,119L72.227,119L72.375,73.395L28.334,73.395ZM111.398,74.002C104.398,74.034 97.372,74.502 90.369,75.402L90.309,93.582C130.682,87.779 172.639,98.684 203.156,121.863L214.043,107.529C186.585,86.674 151.693,74.804 115.879,74.039C114.386,74.007 112.892,73.995 111.399,74.002L111.398,74.002ZM294.119,106.022C285.559,128.933 298.803,134.21 308.447,141.27L300.947,192.57C302.027,200.092 302.619,207.132 303.307,214.027C296.038,209.042 289.289,204.299 284.633,200.15C283.989,178.728 292.988,154.373 286.357,132.096C272.46,127.509 264.811,124.766 242.811,115.412C251.051,139.781 256.766,142.076 271.529,144.576L264.579,205.518C273.679,223.725 297.026,254.948 315.252,270.732C333.93,314.324 346.828,326.844 364.445,333.715C367.845,348.015 370.905,363.357 376.053,378.611L376.727,380.609L378.219,382.099C393.033,396.904 416.996,412.084 435.009,419.539L441.895,402.906C427.457,396.931 404.881,382.525 392.463,370.684C389.127,360.343 386.649,349.486 384.102,338.524C382.121,336.139 380.527,333.458 379.377,330.578C373.747,316.602 379.017,301.011 390.078,289.988C376.621,277.81 362.152,267.111 347.728,250.387C345.243,233.851 330.302,213.933 321.368,196.318C326.495,173.212 323.63,159.32 327.193,136.352C310.683,121.908 308.396,121.962 294.119,106.022ZM27.832,137L27.469,183L72.018,183L72.168,137L27.832,137ZM27.328,201L26.965,247L71.81,247L71.958,201L27.328,201ZM26.822,265L26.461,311L71.6,311L71.751,265L26.822,265ZM423.582,293.938C423.098,293.927 422.613,293.93 422.129,293.948C418.559,294.08 414.658,295.002 410.66,296.912C397.868,303.026 392.575,315.216 395.633,322.809C398.691,330.402 410.508,334.415 423.301,328.301C436.093,322.187 441.386,309.997 438.328,302.405C436.357,297.511 430.747,294.105 423.582,293.938ZM26.318,329L25.955,375L71.395,375L71.543,329L26.318,329ZM397.611,347.672C402.805,354.582 408.496,360.994 414.156,366.748L414.701,367.305L415.336,367.758C433.248,380.57 441.737,384.762 458.371,391.646L465.254,375.016C449.178,368.362 443.199,365.496 426.52,353.609C424.788,351.831 423.094,350.017 421.44,348.166C413.2,350.337 404.839,350.166 397.611,347.672ZM25.814,393L25.451,439L71.186,439L71.336,393L25.814,393ZM253.816,438.928C231.288,439.209 209.774,470.495 192,471C167.48,465.518 150.382,439.518 128,439C113.6,440.853 100.972,445.58 89.143,452.041L89.073,473.637C101.832,465.304 116.295,457.37 128,457C152.52,462.482 169.618,488.482 192,489C215.32,490.84 237.652,457.522 256,457C280.52,462.482 297.618,488.482 320,489C343.32,490.84 365.652,457.522 384,457C408.52,462.482 425.618,488.482 448,489C465.604,487.292 481.913,479.133 495,470.82L495,449.29C482.742,457.182 461.79,470.564 448,471C423.48,465.518 406.382,439.518 384,439C360.68,437.16 338.348,470.478 320,471C295.48,465.518 278.382,439.518 256,439C255.273,438.943 254.545,438.919 253.816,438.928ZM25.31,457L25.073,487L71.03,487L71.128,457L25.31,457Z" style="fill:white;fill-rule:nonzero;"/>
</svg>
