<?xml version="1.0" encoding="UTF-8" standalone="no"?>
<!DOCTYPE svg PUBLIC "-//W3C//DTD SVG 1.1//EN" "http://www.w3.org/Graphics/SVG/1.1/DTD/svg11.dtd">
<svg width="100%" height="100%" viewBox="0 0 512 512" version="1.1" xmlns="http://www.w3.org/2000/svg" xmlns:xlink="http://www.w3.org/1999/xlink" xml:space="preserve" xmlns:serif="http://www.serif.com/" style="fill-rule:evenodd;clip-rule:evenodd;stroke-linejoin:round;stroke-miterlimit:2;">
    <path d="M198.844,64.75C197.859,64.75 196.87,64.78 195.874,64.844C179.959,65.859 163.828,76.378 158.094,91.781C124.022,183.313 107.009,220.646 96.594,314.657C111.227,328.147 128.224,341.107 146.844,352.782L213.25,156.315L230.938,162.283L163.28,362.5C182.79,373.377 203.71,382.734 225.28,389.78L300.687,188.25L318.187,194.78L243.25,395.062C262.704,400.158 282.455,403.262 302.03,403.937L381.345,225.5L398.439,233.094L322.564,403.75C344.384,402.513 365.769,397.982 386.001,389.47C429.318,335.626 458.634,279.686 470.501,216.78C475.593,189.788 455.739,163.656 416.281,161.97L410.126,161.688L407.938,155.938C399.488,133.55 388.188,125.845 376.438,123.468C364.688,121.092 351.171,125.003 340.97,130.844L327.906,138.314L327,123.314C326.01,106.918 316.657,93.717 302.687,87.688C288.717,81.658 269.623,82.456 247.875,97.594L237.437,104.844L233.625,92.719C227.108,71.953 213.618,64.734 198.845,64.749L198.844,64.75ZM103.28,188.344C71.143,233.448 47.728,299.56 51.407,359.656C78.947,381.496 106.017,393.349 131.47,395.094C145.625,396.064 159.41,394.009 172.875,388.656C137.43,371.421 105.515,349.123 80.281,325.126L76.938,321.969L77.438,317.374C83.232,262.736 91.384,225.874 103.282,188.344L103.28,188.344Z" style="fill:white;"/>
</svg>
