<?xml version="1.0" encoding="UTF-8" standalone="no"?>
<!DOCTYPE svg PUBLIC "-//W3C//DTD SVG 1.1//EN" "http://www.w3.org/Graphics/SVG/1.1/DTD/svg11.dtd">
<svg width="100%" height="100%" viewBox="0 0 512 512" version="1.1" xmlns="http://www.w3.org/2000/svg" xmlns:xlink="http://www.w3.org/1999/xlink" xml:space="preserve" xmlns:serif="http://www.serif.com/" style="fill-rule:evenodd;clip-rule:evenodd;stroke-linejoin:round;stroke-miterlimit:2;">
    <path d="M172,18C171.3,19.85 170.5,21.8 169.9,23.9C166.4,34.83 164.8,47.79 169.4,57.19C169.9,58.21 170.2,58.47 170.6,59.26C175.5,55.19 183.6,50.11 195.4,50.47C205.2,50.76 213.3,56.49 218,63.6C222.7,70.71 224.9,79.16 225.3,87.6C225.7,96.03 224.4,104.5 220.8,111.9C217.2,119.3 210.5,126.1 201.3,127.4C186.2,129.6 175.3,121.3 169.8,117.7C168.9,117.2 168.5,117.1 168,116.8C167.7,117.3 167.6,117.3 167.1,118.5C166.6,119.5 166.2,126.7 168.3,136.1C169.1,139.5 170,143.2 171.2,147C191.8,146.5 212,148.1 226.5,153.7C233.9,156.5 239.1,159 242.7,164.2C246.3,169.4 245.4,176.3 243.9,180.2C241,188 237.4,192.4 238.5,202.4C239,206.2 240.1,207.4 242.5,208.7C244.9,210 249,210.7 253.4,210C262.2,208.8 270.3,202.8 271.2,196.6C272.5,187.7 270.6,187.9 267.3,183.8C266.5,182.7 265.3,181.4 264.4,178.9C263.5,176.3 263.7,172.1 265.2,169.4C268.1,164 271.7,162.5 277.3,159.5C286.1,154.7 295.9,155.7 306.6,157.4C314.1,158.6 322.2,160.5 330.4,162.6C328.1,153.5 326,144.5 324.7,136.1C323,124.8 322.3,114.4 327.4,105.2C329.2,102.1 330.6,99.72 332.4,97.64C334.1,95.56 336.2,93.27 340.3,92.4C344.4,91.52 348.7,93.7 350.5,95.41C352.4,97.12 353.2,98.51 354,99.72C355.6,102.1 356.9,103.9 358.1,104.7C359.3,105.6 360.2,106.3 363.9,105.7C366.4,105.4 368.8,103.7 371,100.1C373.3,96.54 374.9,91.23 375.2,86.08C375.4,80.93 374.4,76.06 372.6,73.16C370.9,70.27 369.4,69.02 365.5,68.8C360.3,68.5 358.2,69.48 357,70.25C355.8,71.01 355.3,71.75 354.3,73.46C353.7,74.31 353.6,75.55 350.4,77.77C348.8,78.88 345.5,79.9 342.8,79.32C340,78.73 338.5,77.35 337.5,76.35C333.6,72.38 333.1,69.76 330,63.29C322.5,47.68 323.3,30.85 326,17.99L172,18ZM345.1,18C342.5,28.87 340.7,43.98 346.2,55.49C346.3,55.62 346.3,55.66 346.4,55.79C346.7,55.58 346.9,55.35 347.2,55.15C351.9,52.14 358.4,50.36 366.5,50.83C376,51.37 383.9,56.95 388.1,63.97C392.3,70.98 393.6,79.11 393.1,87.07C392.7,95.03 390.5,102.9 386.3,109.7C382.1,116.4 375.3,122.3 366.5,123.5C358.9,124.6 352,122.6 347.4,119.3C345.5,117.9 344.1,116.4 342.8,114.9C341.8,117.8 341.2,124.5 342.5,133.5C344,143.3 347.1,155.3 350.3,167.5C350.3,167.6 350.3,167.7 350.4,167.7C359.1,170 367.6,172 375.2,173.2C385.4,174.8 393.8,174.7 397.8,173.2C399.8,172.5 400.5,172 401.3,171.5C401.3,171.4 401.3,171.4 401.2,171.3C397.3,165.8 387.1,154.4 388.3,137.4C389,127.7 395.7,119.8 403.4,116.6C407.3,115 411.4,114.2 415.5,114C419.7,113.8 423.9,114.1 428.1,114.9C436.4,116.4 444.6,119.7 451.5,124.6C458.4,129.5 464.3,136.3 465.6,145.4C467.6,159.2 460.3,168.8 456.3,173.6L456.5,173.8C462.4,176.6 475.7,175.2 487.1,171.5C489.5,170.8 491.8,169.9 494,169.1L494,18L345.1,18ZM418.4,132C415.1,132 412.2,132.5 410.3,133.2C407.3,134.5 406.5,135.1 406.3,138.6C405.6,148.2 410.8,153.7 415.9,160.9C417.2,162.7 418.5,164.6 419.5,167.1C420.6,169.7 421.2,173.5 420.1,177.1C417.7,184.4 411.6,187.3 404,190.1C394.4,193.7 383.8,192.8 372.3,191C366.8,190.1 361.1,188.9 355.3,187.5C356.6,193.1 357.8,198.7 358.6,204.1C360.4,215.7 361.1,226.5 356.7,236.1C353.6,243 352.6,246.9 346.9,250.6C344.1,252.4 338.8,252.7 335.9,251.4C333.1,250.1 332,248.7 330.9,247.6C326.7,243.3 325.8,240.2 315.5,240.8C311.8,241 310.7,242 309.2,245C307.7,247.9 306.9,253 307.4,258.3C308,263.7 309.8,269.1 312.1,272.5C314.3,276 316.1,276.8 317.4,276.8C324.4,276.9 328.2,273.5 334.8,270.1C338.1,268.3 343.6,266.2 349.4,268.5C355.1,270.8 358.1,275.5 361,281.4C365.9,291.5 368,305.7 368.7,321.5C369.6,321.4 370.6,321.2 371.5,321C382.7,319.1 393.1,318.2 402.7,321.7C406.5,323.1 409.4,324.4 412.1,326.2C414.7,328 417.6,330.8 418.5,334.9C419.4,339.1 417.8,342.8 416.4,345C415,347.3 413.5,348.7 412.1,350.2C406.4,355.9 401.7,359.4 402.8,367.3C403.2,370.1 405,372.7 409.3,375.2C413.5,377.8 419.8,379.7 426.1,380.2C432.4,380.7 438.6,379.8 442.6,378.1C446.5,376.4 447.6,375 447.9,372.9C449,365.6 444.9,361.4 439.8,354.6C437.3,351.2 433.7,346.8 434.3,339.9C434.9,333 440.2,328 446.8,324.2C461.7,315.8 479.1,319.3 492.5,323.6C493,323.8 493.5,323.9 494,324.1L494,188.2C493.5,188.4 493.1,188.5 492.6,188.7C479.5,192.9 463.1,197 448.6,189.9C445.7,188.5 443.3,187.1 441.1,185.2C438.9,183.2 436.8,180.4 436.2,176.8C435.7,173.2 436.9,170 438,168C439.2,166 440.4,164.6 441.4,163.3C445.8,158.3 449,156 447.8,148C447.5,145.6 445.4,142.3 441.1,139.2C436.8,136.2 430.7,133.7 424.8,132.6C422.6,132.2 420.4,132 418.4,132ZM177.3,165L176.7,165L178,169.1C181.7,181.1 185.5,193.4 187.6,204.8C189.6,216.2 190.5,226.9 185.6,236.5C183.9,239.9 182.3,242.5 180.3,244.9C178.3,247.2 175.2,249.8 170.7,250C166.3,250.2 163,247.8 161.2,246C159.5,244.3 158.4,242.8 157.4,241.3C155.2,238.3 153.3,235.7 151.2,234.2C149.2,232.6 147.4,231.7 143,232.2C139.9,232.6 137.5,234.3 135,238.4C132.6,242.6 130.9,248.8 130.5,255.1C130.2,261.4 131.3,267.7 133.2,271.8C135.1,275.9 136.9,277.3 139.3,277.6C147.3,278.8 151.8,274.7 158.7,269.9C162.1,267.5 166.3,264.2 173.1,264.7C179.9,265.2 185,270.5 188.5,276.8C193.4,285.8 192.2,295.7 190.4,306.7C188.5,317.6 185.2,329.8 181.9,342C181.7,342.7 181.5,343.3 181.3,344C198.8,343 215.2,340 223.1,336.1C223.2,336.1 223.2,336.1 223.2,336C220.3,331.5 218.6,325.2 219,317.3C219.4,307.7 224.8,299.8 231.5,295.2C238.2,290.6 246.1,288.7 253.9,288.4C261.7,288.1 269.4,289.4 276,293C282.7,296.6 288.7,303.5 288.9,312.3C289.1,322.6 285.1,330 283,333.4C284,334.2 285.4,335.2 287.6,336.4C289.5,337.5 296.2,338.3 305.2,336.8C314.2,335.4 325.4,332.4 336.9,329.3C341.5,328.1 346.1,326.8 350.7,325.6C350,309.3 347.5,294.8 344.8,289.3C344,287.5 343.4,286.8 342.9,286.2C339.1,288.2 330.2,295 317.1,294.8C308.2,294.7 301.3,288.9 297,282.4C292.8,275.9 290.3,268.1 289.5,260.2C288.7,252.2 289.4,244 293.2,236.7C297,229.4 304.9,223.4 314.5,222.8C326.1,222.2 334.2,227 339.1,230.9C339.5,230 339.9,229.7 340.4,228.6C341.9,225.2 342.4,217 340.8,206.8C339.7,199.5 337.8,191.1 335.6,182.5C324,179.5 312.9,176.6 303.8,175.2C294.5,173.7 287.5,174.5 285.9,175.3C285,175.8 284.8,176.1 284.1,176.5C287,181.1 290.5,188.9 289,199.2C286.5,216.2 270.7,225.8 255.9,227.9C248.5,228.9 240.7,228.2 233.9,224.5C227.1,220.8 221.6,213.4 220.6,204.4C218.9,188.9 225.6,177.8 227,173.9C226.3,173.4 224.5,172.2 220.1,170.5C211.2,167.1 194.7,165.1 177.3,165ZM158,165.8C139.2,167.3 121.8,171.3 115,175C113.2,176 112.4,176.7 111.8,177.3C114.4,181.2 122.5,190.6 121.3,204.5C120.6,213.2 114.2,219.9 107.3,222.9C100.4,226 92.71,226.6 85.02,225.7C77.34,224.7 69.62,222.1 63.08,217.5C56.54,212.8 51.1,205.5 49.97,196.4C48.97,188.4 50.8,181.5 53.93,176.7C55.09,174.9 56.36,173.5 57.6,172.3C57.45,172.2 57.44,172.2 57.28,172.1C48.09,167.4 34.84,168.4 23.66,171.5C21.65,172 19.79,172.6 18,173.2L18,339.5C19.77,340.1 21.62,340.7 23.61,341.2C34.75,344.3 48,345.4 57.36,340.7C59.21,339.8 59.93,339.2 60.92,338.5C57.24,333.9 50.61,324.5 52.11,310.5C53.12,301.2 58.93,293.8 65.91,289.6C72.89,285.4 80.97,283.8 88.94,283.8C96.9,283.8 104.8,285.5 111.7,289.4C118.5,293.2 124.6,299.9 125.8,308.7C127.5,321.7 120.6,330.7 116.9,335.1C117.5,335.5 117.6,335.7 118.7,336.3C125.1,339.9 143.3,343.4 162.6,344.1C163.3,341.8 163.9,339.6 164.5,337.3C167.8,325.1 171,313.2 172.6,303.7C174.2,294.1 173.5,286.9 172.7,285.5C171.9,284 171.6,283.7 171.3,283.3C170.8,283.6 170.1,283.9 169,284.7C163.3,288.6 152.3,297.7 136.7,295.4C127.3,294.1 120.5,287 116.9,279.4C113.3,271.7 112.1,262.9 112.6,254.2C113,245.5 115.1,236.7 119.5,229.3C123.9,221.8 131.4,215.4 141.1,214.3C149.6,213.4 157,216 162,219.8C165.6,222.4 167.9,225.3 169.8,227.8C171.1,224.7 171.6,217.5 169.8,208C168.1,198.2 164.5,186.4 160.8,174.5C159.9,171.6 158.9,168.7 158,165.8ZM88.85,301.8C83.59,301.8 78.44,303 75.16,305C71.88,307 70.39,308.9 70.01,312.4C68.98,322.1 72.37,324 76.7,329.5C77.79,330.9 79.06,332.5 80.04,335.1C81.03,337.7 81.19,341.8 79.77,345C76.95,351.3 72.25,353.4 65.4,356.9C49.58,364.7 32.11,362.2 18.82,358.6C18.54,358.5 18.28,358.4 18,358.3L18,494L154.3,494C151.7,482.3 151.2,467.6 158.8,454.2C162.1,448.4 163.6,445.1 167.9,442C170,440.4 174.1,439.1 177.3,439.9C180.5,440.6 182.1,442.1 183.1,443C185.1,444.8 185.7,445.5 186.8,446C187.9,446.5 189.4,447.1 193.4,446.6C195,446.4 197.5,444.9 199.9,440.6C202.4,436.4 204.3,430.1 204.8,423.9C205.3,417.8 204.3,411.8 202.6,408.3C200.9,404.8 199.7,403.7 196.2,403.5C191.6,403.2 189.6,404.3 187.6,405.9C185.6,407.5 183.9,410.1 182.3,412.9C181.4,414.2 180.7,415.6 179.2,417.4C178.5,418.3 177.5,419.4 175.6,420.4C173.8,421.5 170.6,422.1 168,421.4C162.7,420.1 161.4,416.9 160.1,414.6C158.8,412.2 157.7,409.6 156.3,406C152.7,396.3 153.7,385.5 155.7,373.8C156.4,370 157.2,366 158.1,362C139.1,361.3 121.7,358.6 109.9,352.1C103.9,348.7 99.18,345.8 97.48,339.2C96.64,335.9 97.38,332.3 98.48,330.1C99.56,327.8 100.8,326.4 101.8,325.1C106.1,320 108.9,318.5 107.9,311C107.6,308.9 106.4,307 102.9,305.1C98.18,303 93.17,301.8 88.85,301.8ZM467.6,337.4C462.9,337.4 458.7,338.2 455.6,339.9C453.9,340.9 453.4,341.4 452.9,341.7C453.2,342.2 453.4,342.8 454.2,343.9C458.3,349.3 468,360 465.7,375.5C464.4,384.8 457.2,391.5 449.6,394.7C441.9,397.9 433.3,398.8 424.6,398.1C416,397.4 407.4,395.1 400,390.7C392.7,386.3 386.2,379.1 385,369.7C382.9,354.5 392.3,344.5 397.7,339.1C397.2,338.9 397.2,338.9 396.5,338.6C392.6,337.2 384.4,337.1 374.5,338.8C372.7,339.1 370.8,339.4 368.9,339.8C368.5,361.5 365.9,383.4 360,398.5C357.1,406 354.6,411.4 348.6,414.6C345.5,416.2 341.8,416.6 338.9,416.1C336.1,415.5 334,414.5 332.1,413.5C324.6,409.5 319.6,405 309.1,405.4C305.4,405.5 305.1,406.1 303.9,408.9C302.8,411.7 302.3,417.1 303.4,422.7C304.4,428.3 306.8,434.1 309.6,437.9C312.3,441.7 314.8,442.8 315.9,442.9C322.6,443 323,440.7 328,436.5C329.2,435.4 330.8,434 333.6,433.1C336.4,432.2 340.4,432.6 343.1,434C348.6,436.9 350.6,440.8 354.1,447C362.4,461.7 360.3,478.9 357.3,492.3C357.2,492.9 357,493.4 356.9,494L494,494L494,343.2C491.8,342.4 489.5,341.5 487.1,340.8C480.7,338.7 473.7,337.5 467.6,337.4Z" style="fill:white;fill-rule:nonzero;"/>
</svg>
