<?xml version="1.0" encoding="UTF-8" standalone="no"?>
<!DOCTYPE svg PUBLIC "-//W3C//DTD SVG 1.1//EN" "http://www.w3.org/Graphics/SVG/1.1/DTD/svg11.dtd">
<svg width="100%" height="100%" viewBox="0 0 512 512" version="1.1" xmlns="http://www.w3.org/2000/svg" xmlns:xlink="http://www.w3.org/1999/xlink" xml:space="preserve" xmlns:serif="http://www.serif.com/" style="fill-rule:evenodd;clip-rule:evenodd;stroke-linejoin:round;stroke-miterlimit:2;">
    <path d="M372.97,24.938C364.3,25.106 355.154,28.582 346.28,35.218C333.662,44.658 322.206,60.421 315.78,80.062C309.356,99.704 309.3,119.182 313.906,134.219C318.514,149.255 327.281,159.444 338.876,163.219C350.469,166.991 363.6,163.939 376.219,154.499C388.837,145.059 400.293,129.265 406.719,109.624C413.143,89.982 413.231,70.504 408.624,55.468C404.017,40.43 395.22,30.272 383.624,26.498C380.724,25.554 377.744,25.033 374.686,24.935C374.113,24.917 373.546,24.925 372.968,24.935L372.97,24.938ZM217.28,94.718C195.584,94.742 173.886,96.921 152.187,101.812C127.277,131.636 108.339,162.067 99.312,200.282L136.688,218.094C144.961,187.359 158.173,164.277 180.063,141.094C202.769,133.25 225.481,134.857 248.188,142.594C173.948,207.731 197.018,263.27 167.844,369.064C125.191,386.931 82.746,389.594 44.594,369.062L23,415.625C82.418,442.715 148.736,445.443 213.844,415.625C234.212,372.182 241.058,327.022 238.844,282.719C295.31,354.663 323.11,398.2 338.78,498.56L396.72,498.56C393.6,483.854 390.51,470.166 387.375,457.342C364.853,365.209 340.112,317.712 287.155,258.936C296.85,222.806 309.298,199.271 339.595,184.654C350.762,204.421 369.577,221.336 390.687,233.56L488.062,235.123L488.532,194.093L402,191.968C393.95,186.412 387.075,180.238 381.25,173.654C366.364,182.734 349.226,186.217 333.094,180.967C314.672,174.97 301.951,159.005 296.031,139.685C292.549,128.315 291.289,115.635 292.345,102.435C267.328,97.551 242.298,94.689 217.282,94.715L217.28,94.718Z" style="fill:white;fill-rule:nonzero;"/>
</svg>
