<?xml version="1.0" encoding="UTF-8" standalone="no"?>
<!DOCTYPE svg PUBLIC "-//W3C//DTD SVG 1.1//EN" "http://www.w3.org/Graphics/SVG/1.1/DTD/svg11.dtd">
<svg width="100%" height="100%" viewBox="0 0 512 512" version="1.1" xmlns="http://www.w3.org/2000/svg" xmlns:xlink="http://www.w3.org/1999/xlink" xml:space="preserve" xmlns:serif="http://www.serif.com/" style="fill-rule:evenodd;clip-rule:evenodd;stroke-linejoin:round;stroke-miterlimit:2;">
    <path d="M259.348,69.037L276.678,73.904L270.662,95.32C275.282,101.25 278.052,108.692 278.052,116.79C278.046,128.932 271.784,139.94 261.922,146.254L216.775,146.254L218.209,141.406C211.714,134.863 208.06,126.011 208.049,116.791C208.049,99.556 220.512,85.241 236.915,82.339L224.712,125.786L242.04,130.653L255.16,83.943L259.348,69.038L259.348,69.037ZM285.396,145.115C299.81,156.941 318.842,175.79 333.443,185.889L323.086,222.763L338.588,227.116C338.845,228.458 339.228,229.798 339.783,231.13L408.74,321.81C416.588,315.765 421.12,321.154 424.953,325.756C437.828,314.545 449.642,302.172 460.246,288.793L485.961,313.908C428.546,384.538 341.007,429.736 243.051,429.736C228.947,429.736 215.065,428.778 201.451,426.963C204.421,416.738 207.393,406.513 210.364,396.289C211.119,394.931 211.756,393.51 212.267,392.042C222.49,393.17 232.767,393.735 243.052,393.735C302.469,393.735 357.458,375.105 402.518,343.358L371.272,302.268C343.478,321.531 311.159,334.708 276.248,339.873C273.121,351.55 262.466,359.737 250.378,359.753C238.945,359.74 228.721,352.418 225.028,341.598C221.402,341.31 217.8,340.936 214.223,340.478C215.893,334.638 217.575,328.798 219.259,322.958C221.267,323.188 223.283,323.391 225.309,323.562C226.104,321.42 227.169,319.388 228.479,317.516L224.349,305.369C230.949,282.659 237.631,259.956 244.315,237.253L254.355,237.253L261.345,308.503C267.306,311.185 272.085,315.955 274.778,321.911C306.216,317.097 335.316,305.244 360.428,288.009L279.608,181.731L279.608,152.27C281.739,150.055 283.676,147.661 285.398,145.115L285.396,145.115ZM153.33,148.255L153.33,226.255L135.605,226.255L135.605,148.255L153.33,148.255ZM213.605,155.255L213.605,219.255L171.33,219.255L171.33,155.255L213.605,155.255ZM117.605,155.255L117.605,219.255L87.605,219.255L87.605,155.255L117.605,155.255ZM261.605,164.255L261.605,210.255L231.605,210.255L231.605,164.255L261.605,164.255ZM355.855,165.445L373.182,170.312L355.877,231.928L338.547,227.061L346.859,197.468L348.366,192.101L355.853,165.446L355.855,165.445ZM69.605,171.255L69.605,203.255L26.605,203.255L26.605,171.255L69.605,171.255ZM227.639,237.255L190.327,364.643L198.467,379.913L180.137,442.963L117.864,422.363L138.319,360.039L155.622,352.909L189.847,237.253L227.637,237.253L227.639,237.255ZM162.837,244.255L129.43,290.52C137.074,295.527 145.08,300.023 153.383,304.002C151.67,309.81 149.962,315.619 148.26,321.43C138.093,316.707 128.292,311.232 118.94,305.05L88.734,346.88C98.732,353.591 109.157,359.641 119.944,364.992C115.828,376.31 112.194,387.822 108.566,399.336C78.006,384.734 50.162,365.336 26.039,342.092L48.899,314.418C54.785,320.199 60.926,325.714 67.304,330.948C70.206,327.711 75.896,325.636 79.749,328.578L140.636,244.254L162.836,244.254L162.837,244.255Z" style="fill:white;fill-rule:nonzero;"/>
</svg>
