<?xml version="1.0" encoding="UTF-8" standalone="no"?>
<!DOCTYPE svg PUBLIC "-//W3C//DTD SVG 1.1//EN" "http://www.w3.org/Graphics/SVG/1.1/DTD/svg11.dtd">
<svg width="100%" height="100%" viewBox="0 0 512 512" version="1.1" xmlns="http://www.w3.org/2000/svg" xmlns:xlink="http://www.w3.org/1999/xlink" xml:space="preserve" xmlns:serif="http://www.serif.com/" style="fill-rule:evenodd;clip-rule:evenodd;stroke-linejoin:round;stroke-miterlimit:2;">
    <path d="M494,61.363L411.42,139.297L490.414,272.257L494,267.799L494,61.362L494,61.363ZM18,62.5L18,288.393C22.48,288.975 27.863,289.296 33.295,289.353C45.165,289.478 54.949,288.703 60.445,288.209L113.1,154.974L18,62.5ZM407.154,167.36L400.114,171.916C399.964,172.013 394.752,175.252 393.221,176.206L382.616,182.626L382.766,182.716C377.852,185.773 376.486,186.633 370.909,190.096C368.079,191.853 368.009,191.894 365.325,193.561C345.035,182.654 323.019,174.271 297.327,167.679C265.015,177.441 230.785,191.567 196.605,204.821C210.795,221.908 226.565,227.472 242.45,227.671C260.87,227.901 279.7,219.891 292.668,210.917L300.068,205.797L307.494,216.527L422.947,299.857L468.059,269.87L407.153,167.36L407.154,167.36ZM126.477,170.1L81.11,284.887L97.76,297.69L128.555,262.785L131.022,259.99L134.742,259.758C136.242,259.664 137.722,259.62 139.182,259.628C149.394,259.694 158.524,262.344 165.372,268.388C170.444,272.86 173.816,278.814 175.772,285.708L178.052,285.566C190.047,284.816 200.854,287.291 208.682,294.196C216.509,301.103 220.312,311.519 221.062,323.516L221.132,324.596C227.572,325.812 233.337,328.348 238.025,332.484C245.853,339.39 249.655,349.804 250.405,361.801L250.602,364.921C251.244,365.123 251.877,365.345 252.502,365.579L254.535,362.726L260.005,355.048L262.818,351.098L270.148,356.321L329.576,398.657C336.04,397.063 339.893,394.582 342.036,391.571C344.183,388.559 345.269,384.101 344.66,377.464L273.402,326.434L266.084,321.194L271.274,313.948L277.944,304.583L285.274,309.806L365.609,367.032C372.073,365.439 375.929,362.958 378.072,359.947C380.216,356.937 381.302,352.49 380.697,345.865L288.299,280.315L280.959,275.105L291.373,260.425L298.716,265.633L391.13,331.198C397.6,329.604 401.457,327.123 403.603,324.11C405.751,321.095 406.836,316.634 406.223,309.985L295.783,230.275C281.128,238.963 262.381,245.923 242.226,245.671C218.639,245.376 193.409,234.105 174.849,205.621C173.896,204.159 173.389,202.452 173.389,200.707C173.389,196.978 175.706,193.619 179.192,192.294C192.206,187.349 205.355,182.124 218.535,176.94L126.479,170.106L126.477,170.1ZM139.379,277.72L91.815,331.63C92.742,338.376 94.855,342.572 97.702,345.084C100.549,347.596 104.977,349.169 111.786,349.248L159.349,295.34C158.422,288.593 156.309,284.395 153.462,281.883C150.615,279.371 146.188,277.799 139.378,277.721L139.379,277.72ZM182.687,303.53L128.974,364.41C129.9,371.157 132.014,375.355 134.86,377.867C137.71,380.377 142.135,381.95 148.945,382.027L202.658,321.149C201.732,314.401 199.618,310.205 196.771,307.692C193.925,305.18 189.498,303.607 182.688,303.528L182.687,303.53ZM212.027,341.816L164.467,395.726C165.394,402.472 167.507,406.669 170.354,409.182C173.202,411.694 177.629,413.265 184.438,413.344L232,359.44C231.073,352.69 228.96,348.493 226.113,345.98C223.266,343.468 218.839,341.897 212.029,341.818L212.027,341.816ZM236.729,380.953L197.935,425.233C198.86,431.993 200.973,436.195 203.823,438.709C206.668,441.219 211.09,442.791 217.89,442.872L256.686,398.592C255.76,391.834 253.646,387.632 250.796,385.116C247.952,382.606 243.53,381.036 236.73,380.954L236.729,380.953ZM272.071,385.743C273.765,390.363 274.744,395.483 275.085,400.935L275.317,404.639L267.04,414.087L293.764,433.124C300.228,431.53 304.08,429.049 306.224,426.038C308.369,423.028 309.457,418.574 308.852,411.945L272.072,385.745L272.071,385.743Z" style="fill:white;fill-rule:nonzero;"/>
</svg>
