<?xml version="1.0" encoding="UTF-8" standalone="no"?>
<!DOCTYPE svg PUBLIC "-//W3C//DTD SVG 1.1//EN" "http://www.w3.org/Graphics/SVG/1.1/DTD/svg11.dtd">
<svg width="100%" height="100%" viewBox="0 0 512 512" version="1.1" xmlns="http://www.w3.org/2000/svg" xmlns:xlink="http://www.w3.org/1999/xlink" xml:space="preserve" xmlns:serif="http://www.serif.com/" style="fill-rule:evenodd;clip-rule:evenodd;stroke-linejoin:round;stroke-miterlimit:2;">
    <path d="M256,15.99C247.2,15.99 240,30.32 240,47.99C240,56.46 241.7,64.58 244.7,70.56C240,70.77 235.7,71.72 231,72.99L231,88.84C248.1,86.42 265.1,86.53 281,88.84L281,72.99C276.5,71.64 271.6,70.88 267.3,70.56C270.3,64.58 272,56.46 272,47.99C272,30.32 264.8,15.99 256,15.99ZM86.23,86.28C79.98,92.53 85.04,107.7 97.53,120.2C103.6,126.2 110.5,130.8 116.9,132.9C113.7,136.4 111.3,140.1 108.9,144.3L120.2,155.5C130.1,142.1 142.1,130.1 155.5,120.2L144.3,108.9C140.1,111.1 136.3,114.1 132.9,116.9C130.8,110.5 126.2,103.6 120.2,97.6C112.2,91.39 95.65,77.2 86.23,86.28ZM391.8,97.58C385.8,103.6 381.2,110.5 379.1,116.9C375.6,113.7 371.9,111.3 367.7,108.9L356.5,120.2C369.9,130.1 381.9,142.1 391.8,155.5L403.1,144.3C400.9,140.1 397.9,136.3 395.1,132.9C401.4,130.7 408.3,126.2 414.3,120.2C426.8,107.7 431.9,92.51 425.6,86.27C415.7,78.4 397.6,91.89 391.8,97.58ZM249.5,105.1C212.7,106.7 179.3,121.4 153.9,144.7C150.6,147.8 147.3,151 144.7,153.9C121.4,179.3 106.7,212.7 105.1,249.6C105.1,254.1 104.9,258.7 105.2,262.6C106.7,299.4 121.4,332.8 144.7,358.2C147.8,361.4 151.1,364.7 153.9,367.4C179.3,390.6 212.7,405.3 249.5,406.9L249.7,406.9C253.8,407.1 258.4,406.9 262.5,406.9C299.3,405.3 332.7,390.6 358.1,367.3C361.4,364.2 364.7,361 367.3,358.1C390.6,332.7 405.3,299.3 406.9,262.5L406.9,262.3C407.1,258.1 406.9,253.6 406.9,249.5C405.3,212.7 390.6,179.3 367.3,153.9C364.2,150.6 361,147.3 358.1,144.7C332.7,121.4 299.3,106.7 262.5,105.1C258,104.9 253.4,105.1 249.5,105.1ZM256,115.8C260.4,115.8 264,119.4 264,123.8C264,128.2 260.4,131.8 256,131.8C251.6,131.8 248,128.2 248,123.8C248,119.4 251.6,115.8 256,115.8ZM262.9,144.2C288.6,145.8 312,156 330.2,172.1C333.6,175.2 336.9,178.4 339.9,181.8C356,200 366.2,223.4 367.8,249.2C368.2,253.8 367.8,258.4 367.8,262.9C366.2,288.6 356,312 339.9,330.2C336.8,333.6 333.6,336.9 330.2,339.9C312,356 288.6,366.2 262.8,367.8C258.2,367.9 253.6,368.2 249.1,367.8C223.4,366.2 200,356 181.9,339.9L181.8,339.9C178.4,336.9 175.2,333.6 172.2,330.2C156.1,312.1 145.8,288.7 144.2,262.9C144.1,258.3 143.8,253.8 144.2,249.3C144.7,223.5 157.5,198.8 172.1,181.8C175.2,178.4 178.4,175.1 181.8,172.1C200,156 223.4,145.8 249.2,144.2C253.8,143.8 258.4,144.2 262.9,144.2ZM168.1,156.8C171.2,159.9 171.2,165 168.1,168.1C165,171.2 159.9,171.2 156.8,168.1C153.7,165 153.7,159.9 156.8,156.8C160.3,153.9 165,153.9 168.1,156.8ZM355.2,156.8C358.3,159.9 358.3,165 355.2,168.1C352.1,171.2 347,171.2 343.9,168.1C340.8,165 340.8,159.9 343.9,156.8C347.4,153.9 352.1,153.9 355.2,156.8ZM240,163.3L240,172C242.5,175.2 244.4,177.5 247.8,178.8C247.1,191.2 246.2,203.9 245,216.5C252.4,214.6 260.2,214.5 267.1,216.6C265.9,203.9 264.9,191.2 264.2,178.7C272.1,176.6 272,170.1 272,163.3C261,161.6 250.2,161.7 240,163.3ZM201.7,179.1C193,185.3 185.3,193 179.1,201.7L185.3,207.9C189.3,208.4 192.3,208.7 195.6,207.2C203.9,216.5 212.2,226.1 220.3,235.9C224,229.4 229.4,224 236,220.3C226.1,212.2 216.5,203.9 207.2,195.6C209,192.5 208.5,188.9 207.9,185.3L201.7,179.1ZM310.3,179.1L304.1,185.3C303.4,189.3 303.3,192.2 304.7,195.6C295.5,203.9 285.8,212.2 276,220.3C282.5,224 287.9,229.4 291.6,236C299.7,226.1 308.1,216.5 316.3,207.2C319.5,208.9 323,208.5 326.6,207.9L332.8,201.7C326.6,193 319,185.3 310.3,179.1ZM423.1,231C425.6,248.1 425.4,265.1 423.1,281L439,281C440.5,276.5 441,271.6 441.3,267.3C447.3,270.3 455.5,272 464,272C481.7,272 496,264.8 496,256C496,247.2 481.7,240 464,240C455.5,240 447.3,241.7 441.3,244.7C441.2,240 440.3,235.7 439,231L423.1,231ZM73.03,231.1C71.68,235.6 70.92,240.3 70.63,244.7C64.61,241.7 56.48,240.1 48.03,240.1C30.36,240.1 16.03,247.3 16.03,256.1C16.03,264.9 30.36,272.1 48.03,272.1C56.51,272.1 64.64,270.4 70.63,267.4C70.78,272.1 71.75,276.4 73.03,281.1L88.83,281.1C86.45,264 86.33,247 88.83,231.1L73.03,231.1ZM256,233C243.1,233 233,243.2 233,256C233,268.8 243.1,279 256,279C268.8,279 279,268.8 279,256C279,243.2 268.8,233 256,233ZM340,240C336.8,242.5 334.5,244.4 333.2,247.8C320.8,247.1 308.1,246.2 295.5,245C297.4,252.5 297.4,260.2 295.5,267.1C308.1,265.9 320.7,264.9 333.2,264.2C334.2,267.7 337,269.9 340,272L348.7,272C350.4,261 350.3,250.2 348.7,240L340,240ZM163.3,240.1C161.6,251 161.8,261.9 163.3,272.1L172,272.1C175.1,269.6 177.6,267.8 178.7,264.3C191.2,264.9 203.8,265.9 216.5,267.1C214.5,259.6 214.5,251.9 216.4,245C203.8,246.2 191.1,247.1 178.7,247.8C177.8,244.3 174.9,242.1 172,240.1L163.3,240.1ZM388.2,248C392.6,248 396.2,251.6 396.2,256C396.2,260.4 392.6,264 388.2,264C383.8,264 380.2,260.4 380.2,256C380.2,251.6 383.8,248 388.2,248ZM123.8,248.1C128.2,248.1 131.8,251.7 131.8,256.1C131.8,260.5 128.2,264.1 123.8,264.1C119.4,264.1 115.8,260.5 115.8,256.1C115.8,251.7 119.4,248.1 123.8,248.1ZM291.7,276.1C288,282.6 282.6,288 276,291.7C285.9,299.8 295.5,308.1 304.8,316.4C303,319.5 303.5,323.1 304.1,326.7L310.3,332.9C319,326.7 326.7,319 332.9,310.3L326.7,304.1C322.7,303.6 319.7,303.3 316.4,304.8C308.1,295.5 299.8,285.9 291.7,276.1ZM220.3,276.1C212.2,285.9 203.9,295.5 195.6,304.8C192.5,303 188.9,303.5 185.4,304.1L179.1,310.3C185.3,319.1 193,326.8 201.8,332.9L208,326.7C208.5,322.7 208.8,319.7 207.3,316.4C216.6,308.1 226.2,299.8 236,291.7C229.5,288 224,282.6 220.3,276.1ZM244.9,295.4C246.1,308.1 247.1,320.8 247.8,333.3C244.3,334.1 242,337.1 240,340L240,348.7C251,350.4 261.8,350.3 272,348.7L272,340C269.5,336.8 267.6,334.5 264.2,333.2C264.9,320.8 265.8,308.1 267,295.5C259.3,296.8 251.2,297.2 244.9,295.4ZM168.2,343.9C171.3,347 171.3,352.1 168.2,355.2C165.1,358.3 160,358.3 156.9,355.2C153.8,352.1 153.8,347 156.9,343.9C160.4,340.9 165.1,340.9 168.2,343.9ZM355.2,343.9C358.3,347 358.3,352.1 355.2,355.2C352.1,358.3 347,358.3 343.9,355.2C340.8,352.1 340.8,347 343.9,343.9C347.4,340.9 352.2,340.9 355.2,343.9ZM391.8,356.5C381.9,369.9 369.9,381.9 356.5,391.8L367.7,403.1C371.9,400.9 375.7,397.9 379.1,395.1C381.2,401.5 385.8,408.4 391.8,414.4C404.3,426.9 419.4,431.9 425.7,425.7C431.9,419.4 426.9,404.3 414.4,391.8C408.4,385.8 401.5,381.2 395.1,379.1C398.3,375.6 400.7,371.9 403.1,367.7L391.8,356.5ZM120.2,356.5L109,367.7C111.3,371.8 114.1,375.9 117,379.1C110.6,381.2 103.7,385.8 97.63,391.8C85.16,404.3 80.11,419.4 86.33,425.7C92.57,432 107.8,426.9 120.3,414.4C126.3,408.4 130.9,401.5 133,395.1C136.5,398.3 140.2,400.7 144.4,403.1L155.6,391.9C142.1,381.9 130.2,370 120.2,356.5ZM256,380.2C260.4,380.2 264,383.8 264,388.2C264,392.6 260.4,396.2 256,396.2C251.6,396.2 248,392.6 248,388.2C248,383.8 251.6,380.2 256,380.2ZM231,423.2L231,439C235.5,440.4 240.4,441.1 244.7,441.4C241.7,447.4 240,455.5 240,464C240,481.7 247.2,496 256,496C264.8,496 272,481.7 272,464C272,455.5 270.3,447.4 267.3,441.4C272,441.2 276.3,440.3 281,439L281,423.1C263.9,425.6 246.9,425.5 231,423.2Z" style="fill:white;fill-rule:nonzero;"/>
</svg>
