<?xml version="1.0" encoding="UTF-8" standalone="no"?>
<!DOCTYPE svg PUBLIC "-//W3C//DTD SVG 1.1//EN" "http://www.w3.org/Graphics/SVG/1.1/DTD/svg11.dtd">
<svg width="100%" height="100%" viewBox="0 0 512 512" version="1.1" xmlns="http://www.w3.org/2000/svg" xmlns:xlink="http://www.w3.org/1999/xlink" xml:space="preserve" xmlns:serif="http://www.serif.com/" style="fill-rule:evenodd;clip-rule:evenodd;stroke-linejoin:round;stroke-miterlimit:2;">
    <path d="M251.47,18.844C209.367,18.844 170.648,44.346 141.938,87C113.227,129.654 95,189.316 95,255.406C95,321.496 113.227,381.19 141.938,423.844C170.648,466.497 209.368,491.312 251.468,491.312C293.57,491.312 332.321,466.497 361.031,423.844C389.743,381.19 407.971,321.497 407.971,255.406C407.971,189.316 389.743,129.654 361.031,87C332.321,44.346 293.571,18.844 251.471,18.844L251.47,18.844ZM198.53,180.656C199.437,180.643 200.342,180.638 201.25,180.656C210.935,180.854 220.73,183.204 230.438,187.094L223.438,204.031C192.131,191.487 162.844,201.911 143.438,234.971L127.063,225.063C143.803,196.543 170.467,181.058 198.531,180.657L198.53,180.656ZM303.25,181.812C331.314,182.214 357.945,197.698 374.688,226.219L358.344,235.561C338.937,202.501 309.65,192.643 278.344,205.186L271.344,187.656C281.051,183.766 290.846,182.041 300.531,181.843C301.441,181.823 302.346,181.799 303.251,181.813L303.25,181.812ZM252.187,245.5C305.362,245.5 348.469,295.627 348.469,357.47C348.469,419.308 305.361,469.47 252.186,469.47C199.012,469.47 155.906,419.31 155.906,357.47C155.906,295.627 199.012,245.5 252.186,245.5L252.187,245.5ZM232.657,299.656L234.657,313.75L245.687,392.53C239.487,390.086 232.402,388.656 225.031,388.656C203.743,388.656 188.151,400.426 190.188,414.936C192.228,429.449 211.148,441.186 232.438,441.186C253.728,441.186 269.321,429.449 267.282,414.936C267.282,414.926 267.284,414.916 267.282,414.906L267.69,414.844L258.44,347.969L298.315,361.279L310.408,365.719L310.408,320.593L303.533,318.968L246.347,303.278L232.659,299.654L232.657,299.656Z" style="fill:white;fill-rule:nonzero;"/>
</svg>
