<?xml version="1.0" encoding="UTF-8" standalone="no"?>
<!DOCTYPE svg PUBLIC "-//W3C//DTD SVG 1.1//EN" "http://www.w3.org/Graphics/SVG/1.1/DTD/svg11.dtd">
<svg width="100%" height="100%" viewBox="0 0 512 512" version="1.1" xmlns="http://www.w3.org/2000/svg" xmlns:xlink="http://www.w3.org/1999/xlink" xml:space="preserve" xmlns:serif="http://www.serif.com/" style="fill-rule:evenodd;clip-rule:evenodd;stroke-linejoin:round;stroke-miterlimit:2;">
    <path d="M67,20.31C24.75,20.72 -12.45,78.73 47.16,92.5C151,116.5 232,178.6 295.1,275.6C303.3,291.9 309.5,308.1 306.4,324.4C302,340.3 301.1,356.4 303.2,370.3C307.3,395.3 319.7,422.5 341,445.7C362.2,468.9 387.9,483.5 412.4,489.7C436.9,495.8 461.4,494 477.8,479C494.3,463.9 496.4,440.8 490.7,417.3C485,393.8 470.7,368.5 449.7,345.6C428.7,322.6 404.8,306.1 381.9,298.3C373.7,295.5 365.4,293.7 357.5,293.3C343.9,287.8 333.9,276.2 324.9,262.8C269.3,154.7 186.7,84.04 90.4,26.66C82.78,22.87 74.26,20.31 67,20.31ZM322.2,335.8C346.8,397.6 395.5,446.6 449.8,473.3C441.4,474.8 430.9,474.4 419.5,471.6C398.5,466.3 375,453.3 355.7,432.3C336.4,411.2 325,385.9 321.5,364.4C320.5,354.7 320.2,344.3 322.2,335.8Z" style="fill:white;fill-rule:nonzero;"/>
</svg>
