<?xml version="1.0" encoding="UTF-8" standalone="no"?>
<!DOCTYPE svg PUBLIC "-//W3C//DTD SVG 1.1//EN" "http://www.w3.org/Graphics/SVG/1.1/DTD/svg11.dtd">
<svg width="100%" height="100%" viewBox="0 0 512 512" version="1.1" xmlns="http://www.w3.org/2000/svg" xmlns:xlink="http://www.w3.org/1999/xlink" xml:space="preserve" xmlns:serif="http://www.serif.com/" style="fill-rule:evenodd;clip-rule:evenodd;stroke-linejoin:round;stroke-miterlimit:2;">
    <path d="M256,25C128.3,25 25,128.3 25,256C25,383.7 128.3,487 256,487C383.7,487 487,383.7 487,256C487,128.3 383.7,25 256,25ZM256,55C366.9,55 457,145.1 457,256C457,366.9 366.9,457 256,457C145.1,457 55,366.9 55,256C55,145.1 145.1,55 256,55ZM80.52,203.9C75.81,223.1 73,240.9 73,257.9C217.7,288.2 194.5,320.3 221,435.7C232.4,437.8 244,439 256,439C268,439 279.6,437.8 291,435.7C317.5,320.3 294.3,288.2 439,257.9C438.4,239 436,219.5 431.5,203.9C346.7,182.7 301.1,172 256,172C210.9,172 165.3,182.7 80.52,203.9ZM256,183C296.2,183 329,215.8 329,256C329,296.2 296.2,329 256,329C215.8,329 183,296.2 183,256C183,215.8 215.8,183 256,183ZM256,201C225.5,201 201,225.5 201,256C201,286.5 225.5,311 256,311C286.5,311 311,286.5 311,256C311,225.5 286.5,201 256,201Z" style="fill:white;fill-rule:nonzero;"/>
</svg>
