<?xml version="1.0" encoding="UTF-8" standalone="no"?>
<!DOCTYPE svg PUBLIC "-//W3C//DTD SVG 1.1//EN" "http://www.w3.org/Graphics/SVG/1.1/DTD/svg11.dtd">
<svg width="100%" height="100%" viewBox="0 0 512 512" version="1.1" xmlns="http://www.w3.org/2000/svg" xmlns:xlink="http://www.w3.org/1999/xlink" xml:space="preserve" xmlns:serif="http://www.serif.com/" style="fill-rule:evenodd;clip-rule:evenodd;stroke-linejoin:round;stroke-miterlimit:2;">
    <path d="M257.375,20.313C243.957,20.313 231.305,27.998 221.437,42.063C211.569,56.127 205.094,76.331 205.094,98.813C205.094,121.293 211.569,141.467 221.438,155.531C231.306,169.597 243.958,177.281 257.375,177.281C270.793,177.281 283.413,169.597 293.281,155.531C303.151,141.468 309.657,121.295 309.657,98.813C309.657,76.333 303.151,56.128 293.282,42.063C283.415,27.999 270.795,20.313 257.377,20.313L257.375,20.313ZM107.125,63.375C86.82,63.949 83.129,77.267 75.345,92.405C52.047,137.709 19.781,257.155 19.781,257.155L180.251,251.719L209.376,389.312L186.596,495.342L335.689,495.342L313.407,389.342L337.657,251.842L495.187,257.155C495.189,257.155 462.923,137.708 439.627,92.405C431.84,77.265 428.15,63.948 407.845,63.375C389.947,63.375 375.439,78.927 375.439,98.093C375.439,117.259 389.947,132.813 407.845,132.813C411.573,132.813 415.103,131.929 418.439,130.687L426.376,205.093L309.437,165C309.152,165.42 308.885,165.867 308.594,166.28C296.158,184.004 277.99,195.97 257.374,195.97C236.76,195.97 218.592,184.004 206.156,166.28C205.879,165.885 205.616,165.464 205.344,165.062L88.594,205.094L96.531,130.688C99.868,131.93 103.398,132.813 107.126,132.813C125.024,132.813 139.532,117.26 139.532,98.093C139.532,78.928 125.025,63.375 107.127,63.375L107.125,63.375Z" style="fill:white;fill-rule:nonzero;"/>
</svg>
