<?xml version="1.0" encoding="UTF-8" standalone="no"?>
<!DOCTYPE svg PUBLIC "-//W3C//DTD SVG 1.1//EN" "http://www.w3.org/Graphics/SVG/1.1/DTD/svg11.dtd">
<svg width="100%" height="100%" viewBox="0 0 512 512" version="1.1" xmlns="http://www.w3.org/2000/svg" xmlns:xlink="http://www.w3.org/1999/xlink" xml:space="preserve" xmlns:serif="http://www.serif.com/" style="fill-rule:evenodd;clip-rule:evenodd;stroke-linejoin:round;stroke-miterlimit:2;">
    <path d="M488,348.78L417.76,348.78L402.66,436.22L353.88,348.78L169,348.78L169,298.78L359,298.78L359,141.78L488,141.78L488,348.78ZM343,75.78L343,282.78L158.13,282.78L109.34,370.25L94.23,282.78L24,282.78L24,75.78L343,75.78ZM136.724,215.324C136.724,205.185 124.467,200.11 117.299,207.278C110.131,214.446 115.206,226.704 125.345,226.704C131.63,226.704 136.725,221.609 136.725,215.324L136.724,215.324ZM197.669,215.324C197.601,205.204 185.349,200.202 178.217,207.381C171.086,214.561 176.17,226.78 186.29,226.78C192.604,226.78 197.712,221.639 197.67,215.324L197.669,215.324ZM258.614,215.324C258.614,205.185 246.357,200.11 239.189,207.278C232.02,214.446 237.096,226.704 247.235,226.704C253.519,226.704 258.615,221.609 258.615,215.324L258.614,215.324Z" style="fill:white;fill-rule:nonzero;"/>
</svg>
